<?xml version="1.0" encoding="UTF-8"?>
<svg id="_레이어_1" data-name="레이어 1" xmlns="http://www.w3.org/2000/svg" viewBox="0 0 40 40" width="40" height="40">
    <defs>
        <style>
            .cls-1 {
            fill: #CED0D6;
            }
        </style>
    </defs>
    <path class="cls-1"
          d="M28.92,32.7c-.2.02-.7-.9-.84-.37-.06.25.8,2.15.04,2.15l-.21-.13.21-.64c-.54.02-.51.65-.98.8-1.38.46-1.95-1.1-1.77-2.2.09-.57,1.13-1.08,1.66-1.14.79-.09,2.02.64,1.9,1.52Z"/>
    <path class="cls-1"
          d="M32.91,32.45c-.1.81-.99,2.26-.94,3.01s1.2,2.05,1.36,2.84c-.57-.41-1.11-1.12-1.66-1.52-.2-.15-.36-.3-.63-.26-.04.17.04.23.12.34.41.56,1.45,1.02,1.79,1.69-.94-.35-1.9-.84-2.89-1.02l-2.76,1.45,1.78-2.16c-.09-.11-.13-.15-.28-.11-.35.1-1.35,1.66-1.75,1.94.08-.81,1.08-2.41.89-3.14-.03-.1-.33-.57-.3-.59,1.13.28,1.51-.66,1.19-1.61l1.21.24,2.52-1.42c.06.06-.35.55-.43.63-.34.4-.93.93-1.17,1.38-.09.17-.15.22.11.28.36,0,1.39-1.75,1.82-1.95ZM29.66,34.5c-1.09.23-1.01,1.93.07,2.09,1.81.28,1.75-2.47-.07-2.09Z"/>
    <path d="M29.66,34.5c1.83-.38,1.88,2.37.07,2.09-1.08-.17-1.17-1.87-.07-2.09ZM30.56,35.54c0-.33-.27-.59-.59-.59s-.59.27-.59.59.27.59.59.59.59-.27.59-.59Z"/>
    <circle class="cls-1" cx="29.96" cy="35.54" r=".59"/>
    <g>
        <g>
            <path d="M29.69.2c1.03-.5,2.87.08,3.78.72,2.88,2.03,1.28,8.33,1.76,11.38.16,1.02.81,1.62,1.7,2.03.2.09.72.2.82.28.18.15.07,1.9.05,2.25-1.25.25-2.36,1-2.57,2.35-.4,2.59.15,5.5-.11,8.12-.19,1.99-1.61,3.52-3.56,3.91-.55.11-1.43.29-1.87-.09v-2.12c.57-.36,1.03-.1,1.68-.53,1.38-.91,1.04-2.74,1.04-4.13,0-1.74-.09-3.79.11-5.49.15-1.21.89-2.44,1.93-3.08l-.04-.13c-.71-.4-1.28-1.15-1.57-1.9-.76-1.99-.24-6.53-.42-8.91-.08-1.01-.51-1.92-1.54-2.19-.38-.1-.87-.05-1.18-.27V.2ZM30.2,30.85c1.25.02,2.72-.45,3.52-1.44,1.72-2.1.44-7.58,1.01-10.35.29-1.42,1.17-2.25,2.55-2.62.03-.32.15-1.25-.08-1.45-.15-.13-.74-.22-1.04-.4-.14-.08-.6-.45-.7-.57-1.89-2.1,0-8.51-1.28-11.35-.68-1.49-2.39-2.22-3.98-2.09v1.44c.93,0,1.84.4,2.29,1.23,1.11,2.02.19,6.92.53,9.39.12.88.86,1.97,1.55,2.52.17.14.84.38.8.63-1.24.8-2.26,1.86-2.38,3.4-.17,2.19.15,4.59,0,6.79-.12,1.89-.78,3.19-2.8,3.43v1.44Z"/>
            <path class="cls-1"
                  d="M30.2,30.85v-1.44c2.02-.24,2.68-1.54,2.8-3.43.14-2.2-.17-4.6,0-6.79.12-1.54,1.14-2.6,2.38-3.4.04-.25-.63-.49-.8-.63-.69-.55-1.43-1.64-1.55-2.52-.34-2.47.58-7.37-.53-9.39-.45-.83-1.37-1.23-2.29-1.23V.58c1.58-.14,3.3.6,3.98,2.09,1.28,2.84-.61,9.25,1.28,11.35.1.11.56.48.7.57.3.18.89.27,1.04.4.23.2.11,1.13.08,1.45-1.39.37-2.26,1.2-2.55,2.62-.57,2.77.71,8.25-1.01,10.35-.81.99-2.28,1.46-3.52,1.44Z"/>
        </g>
        <g>
            <path d="M34.36,31.11c.25.25-1.19,3.7-1.28,4.28l1.96,4.03c-.16.21-1.09-.17-1.32-.25-.55-.18-2.52-1.11-2.88-1.11-.22,0-.83.35-1.06.47-.75.39-1.82,1.15-2.57,1.42-.13.05-.25.1-.4.06l-.06-.34,1.31-3.92c-.25-.96-.72-.5-1.39-.74-.51-.18-1.03-.89-1.12-1.42-.05-.28.01-.56-.02-.83-.09-.75-.67-1.35-1.15-1.91-.13.83.41,1.66.66,2.48.18.61.49,1.65.55,2.25.04.36-.16.49-.41.23-.16-.17-.36-1.38-.46-1.74-.23-.77-.48-1.54-.77-2.29-3.16.81-6.62.76-9.83.18-1.02.95-.86,2.43-1.18,3.66-.05.18-.19.44-.41.28-.27-.2.18-1.4.17-1.74-.59.58-.88,1.91-1.89,1.84-.73-.05-1.07-.77-.87-1.42.68-1.52,2.35-3.21,2.95-4.68.08-.2.17-.33-.06-.4-4.34-1.38-1.91-6.92.47-9.03.15-.13.58-.34.64-.46.11-.24-.02-.69.21-.98-.47-.58-.95-1.04-1.34-1.71-1.3-2.23-1.39-4.7-.7-7.15-2.6-.56-.29-2.86.76-3.77,3.26-2.83,7.81-3.8,11.88-2.2,3.33,1.31,5.61,4.42,5.61,8.05,0,.96-.69,1.69-.77,2.71s.49,1.11.01,2.3c-.75,1.88-2.64,3.32-4.51,3.97.31.47.58.97.8,1.49.3.7.51,1.67.83,2.31.38.75,1.08,1.07,1.05,2.13-.01.42-.34.79-.31,1.11.02.23.91,2.32,1.07,2.5.43.5,1.29.61,1.46,1.51.09.46-.18.94.53.75,1.07-.43,2.3-1.45,3.33-1.84.17-.06.31-.09.49-.07ZM27.82,11.86c.7,0,1.37.33,1.83.85.38.08.15-1.3.11-1.56-1.18-8.54-12.38-9.1-17.55-3.4-.37.41-1.25,1.49-.4,1.84s1.96,0,2.72-.46c.28-.18.77-.7.99-.79.2-.08.18.24.13.39-.21.69-2.27,1.59-3,1.53-.71,2.32-.62,5.06.8,7.1.21.3,1.03,1.27,1.35,1.28.37.01,1.27-.31,1.79-.34,1.24-.09,2.46.16,3.68.33.42-.62,2.4-4.07,2.87-4.21s1.24.27,1.3.8c.04.4-.39,1.05-.61,1.42s-1.66,2.41-1.59,2.63c.76.56,1.76.77,2.43,1.48l1.47-.5c-.7-2.6-.34-5.73.92-8.11.19-.36,1-1.74,1.42-1.72.12.1.13.11.09.26s-.82,1.1-.73,1.18ZM29.09,15.49c-.02-.76.23-1.49.42-2.22-.32-.49-1.38-1.14-1.94-.87-.36.17-1.21,2.72-1,3.08.81.62,1.66.31,2.52,0ZM23.37,14.86c-.84,0,.44,1.31.6.57.05-.23-.4-.57-.6-.57ZM23.32,15.93c-.24-.03-.33-.31-.59-.26v.42s.6,0,.59-.17ZM26.55,19.91c.79-.3,1.46-1.07,1.94-1.75.23-.33,1.2-1.8.78-2.11-.7,0-1.33.48-2.05.27l-.89-.3c-.07,1.3-.13,2.64.21,3.9ZM22.48,16.18v-.17h-.08v.17h.08ZM23.32,16.44h-.42s.09.51.09.51l.34-.51ZM22.64,17.19c.24-1.22-.98-.51-.64,0,.11.17.47-.04.64,0ZM21.71,17.29h-.17v.08h.17v-.08ZM22.65,17.54l-.51.09.12.42.38-.51ZM21.79,17.72c-.48-.09-.74.3-.5.72l.68-.13-.18-.59ZM20.99,18.39v.08c.06-.03.06-.06,0-.08ZM21.8,18.73h-.42c.02.74.29.63.42,0ZM19.85,19.07c-1.71-.25-3.59-.5-5.22.17l-.04.76c.69-.14,1.52-.35,2.12.13,0,.33-1.89.18-2.16.21-.89.11-2.22,1.96-2.62,2.73-.97,1.88-1.82,4.92.8,5.84-.4-.68-.05-1.41,0-2.08.08-1.09-.25-2.19.04-3.27l.3-.08c-.05.31.07.59.09.89.04.67.13,1.74.08,2.38-.05.79-.58,1.71.21,2.33l5.04-7.86c.03-.19-.83-.59-.4-1.33.37-.64,1.11.06,1.27,0,.13-.09.63-.68.51-.81ZM21.12,18.9c-.5-.03-.67.18-.59.68l.68-.09-.08-.59ZM20.14,19.57v.08c.06-.03.06-.06,0-.08ZM21.03,19.91h-.42l.21.42.21-.42ZM20.35,20c-1.15.1.1.76.17.68l-.17-.68ZM21.12,22.03c.03-.16-.03-.23-.12-.34-.15-.19-1.86-1.29-2.14-1.42-.12-.06-.21-.13-.37-.1-.03.16.03.23.12.34.11.14,1.77,1.26,2.01,1.38.16.08.32.15.5.14ZM23.07,20.25c-.74-.24-1.81.02-2.04.85l.36.07,1.67-.92ZM26.21,25.17c-.28-1.08-1.31-4.25-2.54-4.46-.29-.05-1.81.6-1.96.85s-.02.61-.19.79c-.31.33-.79.06-.99.15s-.53.63-.8.73l-4.04,6.27,4.24.17-1.32-.93c-.1-.11-.39-.56-.08-.51.27.04.68.49.95.66,1.04.65,1.65.86,2.91.61-.74-1.16-1.32-3.09-1.43-4.46-.02-.25-.09-.61.12-.79.29,0,.58,1.94.68,2.29.29,1.07.52,2.36,1.53,2.96.45-1.12,1.72-1.97,2.91-2.09.25-.03,1.03.07,1.08-.02.11-.41-.07-.96-.35-1.27s-1.48-.9-1.56-1.07c-.2-.46.75,0,.84.13ZM19.85,21.86l-.93-.51-8.42,13.25c-.31.89.47,1.24.99.48,2.34-3.75,4.8-7.43,7.16-11.16.15-.23,1.27-1.96,1.2-2.06ZM26.72,27.88c-.24.03-.64-.11-.76.17.33,0,.69.36.76-.17ZM25.18,28.81l.18-.67-.76.47c0,.09.5.26.58.2ZM26.38,28.48l-.67-.16-.26.54.63.29c.13-.03.34-.62.3-.67ZM27.21,28.84c-.05-.06-.41-.22-.49-.16l-.25.64c.34.02.75.49.83-.06.01-.1-.03-.36-.09-.43ZM24.44,28.99c-.15.42-.27.8.28.92.33-.47.48-.98-.28-.92ZM24,29.41s.1-.31.09-.34c-.12-.02-.15.21-.17.34.03,0,.07.01.08,0ZM25.87,30.17l.13-.68-.65-.22-.25.73.76.17ZM26.13,30.34l.68.14c.37-.6.09-.79-.51-.9l-.17.76ZM27.44,29.66v.08c.06-.03.06-.06,0-.08ZM23.83,30.09c-1-.36-2.06.03-3.09.08-1.8.09-3.63-.03-5.42-.18l-.31.51,2.24.27.14.32-2.66-.17-.31.6c.38.02.77.13,1.15.17,2.14.25,4.91.27,7.03-.1.54-.09,1.45-.11,1.24-.83-.8.13-1.69.32-2.5.34-.09,0-.74,0-.64-.22.13-.28.65-.18.89-.21.75-.1,1.5-.22,2.25-.34v-.25ZM27.91,30.68c.07-.06-.3-.83-.59-.68l-.17.76.76-.08ZM24.77,30.17c-.52-.09-.11.37,0,.25v-.25ZM25.7,30.52l-.68-.17c-.1.46.18.65.34,1.02l.34-.84ZM26.72,31.02c-.05-.19-.66-.42-.76-.33l-.26,1.01c.33-.24.57-.62,1.02-.68ZM29.52,32.72c.12-.88-1.11-1.61-1.9-1.52-.52.06-1.57.57-1.66,1.14-.17,1.1.4,2.66,1.77,2.2.47-.16.43-.78.98-.8l-.21.64.21.13c.77,0-.1-1.91-.04-2.15.14-.53.65.39.84.37ZM33.51,32.46c-.43.2-1.46,1.95-1.82,1.95-.26-.06-.2-.12-.11-.28.24-.45.83-.98,1.17-1.38.07-.09.48-.57.43-.63l-2.52,1.42-1.21-.24c.32.95-.06,1.89-1.19,1.61-.03.02.28.49.3.59.19.73-.81,2.33-.89,3.14.4-.28,1.4-1.84,1.75-1.94.15-.04.19,0,.28.11l-1.78,2.16,2.76-1.45c.98.18,1.94.67,2.89,1.02-.34-.68-1.38-1.13-1.79-1.69-.08-.12-.16-.17-.12-.34.27-.05.44.11.63.26.54.4,1.09,1.12,1.66,1.52-.16-.79-1.31-2.11-1.36-2.84s.84-2.2.94-3.01Z"/>
            <path class="cls-1"
                  d="M27.82,11.86c-.09-.08.68-1.02.73-1.18s.03-.16-.09-.26c-.42-.02-1.22,1.36-1.42,1.72-1.26,2.38-1.62,5.51-.92,8.11l-1.47.5c-.67-.71-1.67-.92-2.43-1.48-.06-.22,1.37-2.26,1.59-2.63s.65-1.01.61-1.42c-.06-.52-.81-.94-1.3-.8s-2.45,3.59-2.87,4.21c-1.22-.16-2.44-.41-3.68-.33-.52.04-1.42.35-1.79.34-.32,0-1.14-.99-1.35-1.28-1.42-2.04-1.51-4.78-.8-7.1.74.06,2.79-.85,3-1.53.05-.15.06-.47-.13-.39-.23.1-.71.62-.99.79-.76.47-1.85.82-2.72.46s.03-1.43.4-1.84c5.18-5.7,16.37-5.14,17.55,3.4.04.26.27,1.64-.11,1.56-.45-.51-1.13-.84-1.83-.85ZM21.52,4.5c-1.11.19-1.29,1.74-1.34,2.65-.07,1.3-.16,4.89.2,6,.38,1.18,1.74,1.67,2.7.79.7-.65.77-2.47.84-3.4.09-1.09.26-2.86.17-3.9-.12-1.55-.96-2.41-2.57-2.14ZM19.59,8.3c.02-1.27.27-4.04-1.79-3.61-1.94.41-2.06,2.9-1.74,4.46.39,1.92,2.29,2.97,2.81,4.91.13.48.59,2.58-.43,2.13-.64-.28-.78-2.17-.89-2.8l-1.18.17c.08,1.31.56,3.75,1.92,4.3,2.43.99,2.28-1.75,2.04-3.31-.37-2.35-1.22-3-2.42-4.79-.52-.78-1.04-2.4-.48-3.25.89-1.36,1.05,1.47.97,1.95l1.19-.17ZM26.98,9.91c-.1-.74-.2-1.49-.37-2.22-.12-.55-.25-1.44-.66-1.8-.1-.08-1.02-.67-1.09-.69-.26-.07-.09.23-.09.34.02,2.06-.21,4.22-.44,6.27-.09.76-.23,1.53-.34,2.29,2.26,1.23-.59,3.5-1.09,5.01l1.74,1.07,1.06-11.11c.12-.02.13.15.15.23.22,1.02.32,2.2.45,3.24.79-1.01,1.22-2.65,2.71-2.8-.19-.5-.37-.97-.64-1.43-.07-.12-.82-1.28-.97-1.11l-.11,1.54-.31,1.17ZM14.07,8.89l1.21-.95.32-2.27c-.77.35-1.49.84-2.12,1.4-.29.25-1.66,1.57-1.49,1.91.84.83,1.36-.61,2.08-.93v.85ZM12.63,14.32c.27,1.16.77,2.64,1.7,3.43.27.24.43.39.81.39.9,0,1.33-.62,1.32-1.49-.02-1.19-.65-2.9-.84-4.17-.14-.93-.2-1.89-.27-2.83-.28.33-1.14.58-1.19.97-.09.72.23,2.26.37,3.03.13.69.53,1.82.55,2.43,0,.35-.15.48-.49.31-.37-.18-.86-1.8-.85-2.25l-1.1.17Z"/>
            <path class="cls-1"
                  d="M26.21,25.17c-.09-.13-1.05-.59-.84-.13.08.17,1.29.77,1.56,1.07s.46.86.35,1.27c-.06.09-.84,0-1.08.02-1.18.12-2.46.97-2.91,2.09-1.01-.61-1.24-1.89-1.53-2.96-.1-.35-.38-2.28-.68-2.29-.21.18-.14.55-.12.79.11,1.38.69,3.31,1.43,4.46-1.26.25-1.87.04-2.91-.61-.27-.17-.68-.63-.95-.66-.3-.04-.02.41.08.51l1.32.93-4.24-.17,4.04-6.27c.27-.1.61-.65.8-.73s.68.19.99-.15c.17-.18.04-.54.19-.79s1.67-.9,1.96-.85c1.24.21,2.26,3.38,2.54,4.46Z"/>
            <path class="cls-1"
                  d="M19.85,19.07c.12.13-.38.71-.51.81-.15.07-.89-.64-1.27,0-.43.74.43,1.14.4,1.33l-5.04,7.86c-.79-.62-.26-1.54-.21-2.33.04-.64-.04-1.71-.08-2.38-.02-.3-.14-.58-.09-.89l-.3.08c-.29,1.08.04,2.17-.04,3.27-.05.66-.4,1.39,0,2.08-2.62-.92-1.77-3.96-.8-5.84.4-.77,1.73-2.62,2.62-2.73.28-.03,2.17.12,2.16-.21-.6-.48-1.43-.27-2.12-.13l.04-.76c1.64-.67,3.51-.42,5.22-.17Z"/>
            <path class="cls-1"
                  d="M19.85,21.86c.07.1-1.06,1.83-1.2,2.06-2.37,3.73-4.82,7.41-7.16,11.16-.52.76-1.3.41-.99-.48l8.42-13.25.93.51Z"/>
            <path class="cls-1"
                  d="M23.83,30.09v.25c-.75.12-1.5.24-2.25.34-.23.03-.76-.07-.89.21-.1.22.55.22.64.22.81-.02,1.7-.22,2.5-.34.21.73-.7.74-1.24.83-2.12.37-4.89.34-7.03.1-.38-.04-.76-.15-1.15-.17l.31-.6,2.66.17-.14-.32-2.24-.27.31-.51c1.79.14,3.62.27,5.42.18,1.03-.05,2.09-.45,3.09-.08Z"/>
            <path class="cls-1"
                  d="M26.55,19.91c-.35-1.27-.29-2.6-.21-3.9l.89.3c.71.21,1.35-.26,2.05-.27.41.31-.56,1.78-.78,2.11-.47.68-1.15,1.45-1.94,1.75Z"/>
            <path class="cls-1"
                  d="M29.09,15.49c-.86.3-1.71.61-2.52,0-.21-.36.64-2.9,1-3.08.57-.27,1.62.38,1.94.87-.2.73-.45,1.46-.42,2.22ZM28.77,14.42c.05-.05.35-.03.39-.24-.09-.46-.51-1.25-1-1.35-.67-.14.07.68.08.76,0,.33-.72.81-.32,1.51.45.79.8-.63.85-.69Z"/>
            <path class="cls-1"
                  d="M21.12,22.03c-.18.01-.34-.05-.5-.14-.24-.13-1.9-1.25-2.01-1.38-.09-.12-.15-.18-.12-.34.15-.03.24.04.37.1.29.13,1.99,1.23,2.14,1.42.09.12.15.18.12.34Z"/>
            <path class="cls-1" d="M23.07,20.25l-1.67.92-.36-.07c.23-.82,1.29-1.08,2.04-.85Z"/>
            <polygon class="cls-1" points="25.87 30.17 25.11 30 25.36 29.27 26.01 29.49 25.87 30.17"/>
            <path class="cls-1" d="M26.13,30.34l.17-.76c.6.1.88.3.51.9l-.68-.14Z"/>
            <path class="cls-1" d="M26.38,28.48s-.18.64-.3.67l-.63-.29.26-.54.67.16Z"/>
            <path class="cls-1" d="M27.21,28.84c.06.07.11.33.09.43-.08.55-.49.08-.83.06l.25-.64c.08-.07.44.1.49.16Z"/>
            <path class="cls-1" d="M24.44,28.99c.77-.05.61.45.28.92-.56-.12-.44-.5-.28-.92Z"/>
            <path class="cls-1" d="M23.37,14.86c.2,0,.65.34.6.57-.15.74-1.44-.57-.6-.57Z"/>
            <path class="cls-1" d="M21.79,17.72l.18.59-.68.13c-.24-.42.02-.81.5-.72Z"/>
            <path class="cls-1" d="M22.64,17.19c-.17-.03-.52.18-.64,0-.34-.52.87-1.22.64,0Z"/>
            <path class="cls-1" d="M25.7,30.52l-.34.84c-.16-.36-.44-.56-.34-1.02l.68.17Z"/>
            <path class="cls-1" d="M26.72,31.02c-.45.06-.68.44-1.02.68l.26-1.01c.1-.09.71.14.76.33Z"/>
            <path class="cls-1" d="M27.91,30.68l-.76.08.17-.76c.29-.15.66.62.59.68Z"/>
            <path class="cls-1" d="M21.12,18.9l.08.59-.68.09c-.07-.49.09-.71.59-.68Z"/>
            <path class="cls-1" d="M25.18,28.81c-.08.06-.58-.12-.58-.2l.76-.47-.18.67Z"/>
            <path class="cls-1" d="M20.35,20l.17.68c-.07.08-1.32-.58-.17-.68Z"/>
            <path class="cls-1" d="M23.32,15.93c0,.18-.57.19-.59.17v-.42c.26-.06.36.22.59.26Z"/>
            <path class="cls-1" d="M26.72,27.88c-.07.53-.43.18-.76.17.13-.28.52-.14.76-.17Z"/>
            <path class="cls-1" d="M21.8,18.73c-.13.63-.41.74-.42,0h.42Z"/>
            <polygon class="cls-1" points="22.65 17.54 22.26 18.05 22.14 17.63 22.65 17.54"/>
            <polygon class="cls-1" points="23.32 16.44 22.99 16.95 22.9 16.44 23.32 16.44"/>
            <polygon class="cls-1" points="21.03 19.91 20.82 20.34 20.61 19.91 21.03 19.91"/>
            <path class="cls-1" d="M24.77,30.17v.25c-.11.11-.52-.34,0-.25Z"/>
            <path class="cls-1" d="M24,29.41s-.06,0-.08,0c.02-.13.05-.36.17-.34.01.03-.07.33-.09.34Z"/>
            <rect class="cls-1" x="21.54" y="17.29" width=".17" height=".08"/>
            <rect class="cls-1" x="22.39" y="16.01" width=".08" height=".17"/>
            <path class="cls-1" d="M27.44,29.66c.06.03.06.06,0,.08v-.08Z"/>
            <path class="cls-1" d="M20.14,19.57c.06.03.06.06,0,.08v-.08Z"/>
            <path class="cls-1" d="M20.99,18.39c.06.03.06.06,0,.08v-.08Z"/>
            <path d="M19.59,8.3l-1.19.17c.07-.47-.08-3.3-.97-1.95-.56.85-.05,2.47.48,3.25,1.21,1.79,2.06,2.44,2.42,4.79.24,1.56.4,4.29-2.04,3.31-1.36-.55-1.83-2.99-1.92-4.3l1.18-.17c.1.63.24,2.52.89,2.8,1.03.45.56-1.65.43-2.13-.52-1.95-2.41-2.99-2.81-4.91-.32-1.56-.21-4.05,1.74-4.46,2.06-.43,1.81,2.34,1.79,3.61Z"/>
            <path d="M21.52,4.5c1.61-.27,2.45.59,2.57,2.14.08,1.04-.09,2.81-.17,3.9-.07.92-.15,2.75-.84,3.4-.95.88-2.32.39-2.7-.79-.36-1.11-.27-4.7-.2-6,.05-.9.23-2.46,1.34-2.65ZM22.54,5.95c-.65-.53-.94.35-.99.87-.14,1.45-.25,4.1-.09,5.51.06.58.62.92.92.41.28-.48.24-3.08.27-3.8.02-.59.34-2.62-.11-2.98Z"/>
            <path d="M26.98,9.91l.31-1.17.11-1.54c.15-.17.9.99.97,1.11.27.47.45.94.64,1.43-1.5.15-1.93,1.79-2.71,2.8-.13-1.04-.23-2.23-.45-3.24-.02-.08-.03-.25-.15-.23l-1.06,11.11-1.74-1.07c.5-1.5,3.36-3.78,1.09-5.01.11-.76.25-1.52.34-2.29.23-2.05.45-4.21.44-6.27,0-.11-.17-.41.09-.34.07.02,1,.61,1.09.69.41.35.54,1.25.66,1.8.16.73.27,1.48.37,2.22Z"/>
            <path d="M12.63,14.32l1.1-.17c-.01.45.48,2.07.85,2.25.34.17.5.04.49-.31-.02-.61-.42-1.73-.55-2.43-.14-.77-.46-2.31-.37-3.03.05-.39.91-.64,1.19-.97.06.94.13,1.9.27,2.83.19,1.27.82,2.98.84,4.17.02.86-.41,1.48-1.32,1.49-.37,0-.53-.15-.81-.39-.93-.8-1.42-2.28-1.7-3.43Z"/>
            <path d="M14.07,8.89v-.85c-.73.32-1.25,1.76-2.09.93-.17-.34,1.2-1.65,1.49-1.91.64-.56,1.36-1.04,2.12-1.4l-.32,2.27-1.21.95Z"/>
            <path d="M28.77,14.42c-.05.06-.4,1.48-.85.69-.4-.7.33-1.18.32-1.51,0-.08-.75-.9-.08-.76.48.1.91.89,1,1.35-.04.21-.34.19-.39.24Z"/>
            <path class="cls-1"
                  d="M22.54,5.95c.45.36.13,2.39.11,2.98-.03.72,0,3.32-.27,3.8-.3.51-.86.17-.92-.41-.16-1.41-.06-4.06.09-5.51.05-.51.34-1.39.99-.87Z"/>
        </g>
        <g>
            <path d="M10.25,2.4l-.14.11c-1.92,0-2.56,1.09-2.66,2.85-.14,2.32.25,5.02-.02,7.27-.11.91-.72,2.02-1.37,2.66-.14.14-.56.3-.57.5.48.37.98.81,1.31,1.32,1.17,1.83.49,6.53.64,8.86.07,1.14.43,2.4,1.66,2.75.42.12.83,0,1.14.22v2.29c-.27.21-.86.15-1.22.12-5.89-.49-3.99-7.75-4.29-11.74-.13-1.69-1.02-2.35-2.58-2.74v-2.22c1.39-.43,2.46-1.07,2.58-2.66C5.08,7.73,2.97.2,9.45-.01c.28,0,.59,0,.8.21v2.2ZM9.75.58c-1.11-.1-2.23.23-3.1.93-2.4,1.95-.77,8.11-1.46,11.01-.34,1.43-1.19,2.15-2.58,2.52l.05,1.39c.76.34,1.26.39,1.83,1.06,1.63,1.93.43,7.52.95,10.15.43,2.15,2.2,3.21,4.31,3.2v-1.4c-.27-.19-.64-.15-.99-.28-1.11-.41-1.72-1.64-1.81-2.77-.18-2.24.17-4.71,0-6.96-.1-1.33-.64-2.34-1.66-3.18-.15-.12-.68-.34-.71-.48-.07-.27.65-.53.88-.71,2.88-2.25.64-8.25,1.76-11.38.4-1.13,1.36-1.62,2.53-1.67V.58Z"/>
            <path class="cls-1"
                  d="M9.75.58v1.44c-1.16.05-2.12.55-2.53,1.67-1.12,3.14,1.11,9.13-1.76,11.38-.23.18-.95.45-.88.71.04.14.56.36.71.48,1.02.84,1.56,1.85,1.66,3.18.16,2.25-.18,4.72,0,6.96.09,1.12.7,2.35,1.81,2.77.35.13.72.09.99.28v1.4c-2.1.01-3.88-1.05-4.31-3.2-.52-2.63.68-8.23-.95-10.15-.57-.67-1.07-.72-1.83-1.06l-.05-1.39c1.39-.37,2.24-1.09,2.58-2.52.68-2.9-.94-9.06,1.46-11.01.86-.7,1.99-1.03,3.1-.93Z"/>
        </g>
    </g>
</svg>