<svg xmlns="http://www.w3.org/2000/svg" width="40" height="40" viewBox="0 0 35.31 28.98">
  <path d="M7.42.3v1.39c0,.16-.13.28-.28.29-.43.02-.83.09-1.19.21-.44.14-.78.39-1.02.74-.24.35-.34.83-.31,1.43l.47,6.13c.07.84.03,1.53-.11,2.08-.14.55-.38.98-.71,1.29-.33.31-.75.53-1.26.66.52.12.94.33,1.28.62.33.29.57.71.7,1.25.13.54.17,1.26.1,2.14l-.47,6.13c-.04.62.06,1.1.3,1.45.24.35.58.59,1.02.73.37.11.76.18,1.19.2.16,0,.28.13.28.29v1.39c0,.17-.14.31-.31.3-.51-.02-1.01-.09-1.48-.21-.57-.14-1.07-.39-1.51-.74-.44-.35-.77-.82-.99-1.43s-.3-1.36-.22-2.28l.44-5.68c.06-.69.01-1.27-.14-1.73-.15-.47-.48-.82-.98-1.07-.45-.22-1.1-.34-1.95-.36-.16,0-.29-.13-.29-.29v-1.43c0-.16.13-.29.29-.29.85-.02,1.5-.14,1.95-.35.5-.24.83-.59.98-1.06.15-.47.2-1.04.14-1.72l-.44-5.71c-.07-.92,0-1.68.22-2.28.22-.6.55-1.08.98-1.43.43-.35.94-.6,1.51-.74C6.11.09,6.6.02,7.12,0c.17,0,.31.13.31.3Z"/>
  <path d="M27.36.3c0-.17.14-.31.31-.3.51.02,1.01.09,1.48.21.57.14,1.07.39,1.51.74s.77.82.99,1.43c.23.6.3,1.36.22,2.28l-.44,5.71c-.06.68,0,1.25.19,1.72.19.47.53.82,1.04,1.06.45.21,1.06.33,1.83.35.16,0,.29.13.29.29v1.43c0,.16-.13.28-.29.29-.77.02-1.37.14-1.83.36-.51.24-.86.6-1.04,1.07-.19.47-.25,1.05-.19,1.73l.44,5.68c.07.92,0,1.68-.22,2.28-.22.6-.55,1.08-.98,1.43-.43.35-.94.59-1.51.74-.48.12-.98.19-1.49.21-.17,0-.31-.13-.31-.3v-1.39c0-.16.13-.28.28-.29.43-.02.83-.09,1.19-.2.44-.14.78-.38,1.03-.73.24-.35.34-.83.3-1.45l-.47-6.13c-.07-.89-.03-1.6.11-2.14.14-.54.39-.96.76-1.25.37-.29.85-.49,1.45-.6-.58-.13-1.05-.35-1.42-.67s-.62-.75-.77-1.3c-.15-.55-.19-1.24-.13-2.08l.47-6.13c.04-.61-.06-1.09-.3-1.43-.24-.35-.59-.59-1.02-.74-.36-.12-.76-.19-1.19-.21-.16,0-.28-.13-.28-.29V.3Z"/>
  <g>
    <rect x="16.63" y="7.49" width="1.5" height="13.99" rx=".23" ry=".23" transform="translate(-5.15 16.53) rotate(-45)"/>
    <rect x="10.37" y="13.75" width="13.99" height="1.5" rx=".23" ry=".23" transform="translate(-5.17 16.53) rotate(-45)"/>
  </g>
</svg>