<?xml version="1.0" encoding="UTF-8"?>
<svg id="_레이어_2" data-name="레이어 2" xmlns="http://www.w3.org/2000/svg" viewBox="0 0 35.31 28.98">
  <path d="M8.02,0v3.25c-.45,0-.84.05-1.16.16s-.56.29-.72.56-.22.66-.18,1.16l.34,4.36c.09,1.1,0,2-.27,2.68-.27.68-.68,1.2-1.23,1.56-.55.36-1.2.61-1.95.76.79.16,1.46.41,2.01.77.55.35.95.87,1.2,1.54.25.67.33,1.57.24,2.69l-.34,4.36c-.04.49.02.88.18,1.15s.4.47.73.57c.33.1.71.16,1.16.16v3.25c-1.02,0-1.89-.1-2.6-.3-.71-.2-1.28-.51-1.71-.94-.43-.43-.72-.99-.88-1.69-.16-.7-.2-1.54-.13-2.54l.33-4.23c.06-.75-.04-1.34-.28-1.76-.25-.42-.61-.72-1.09-.89s-1.04-.26-1.67-.26v-3.79c.62,0,1.17-.09,1.66-.26.48-.17.85-.47,1.1-.89s.35-1.01.29-1.76l-.33-4.2c-.08-1.02-.04-1.87.12-2.57.16-.7.45-1.26.88-1.69.43-.43,1-.74,1.71-.93s1.58-.29,2.61-.29Z"/>
  <path d="M27.29,0c1.02,0,1.89.1,2.6.3.71.2,1.28.51,1.71.94.43.43.72.99.88,1.69.16.69.2,1.54.12,2.54l-.33,4.23c-.06.75.04,1.34.29,1.76s.62.72,1.09.89c.48.17,1.03.26,1.66.26v3.79c-.62,0-1.17.09-1.66.26s-.85.47-1.1.89c-.25.42-.35,1.01-.29,1.76l.33,4.2c.08,1.02.04,1.87-.12,2.57-.16.7-.45,1.26-.88,1.69-.43.43-1,.74-1.71.93-.71.19-1.58.29-2.61.29v-3.25c.45,0,.84-.05,1.16-.16s.56-.29.72-.57.22-.66.18-1.15l-.34-4.36c-.09-1.11,0-2.01.27-2.68.27-.68.68-1.19,1.24-1.55s1.21-.61,1.96-.76c-.79-.16-1.46-.41-2.02-.77-.55-.35-.95-.87-1.21-1.55-.25-.68-.33-1.57-.24-2.68l.34-4.36c.04-.5-.02-.89-.18-1.16s-.4-.46-.72-.56-.71-.16-1.16-.16V0Z"/>
  <g>
    <rect x="16.15" y="7.72" width="3" height="15.76" transform="translate(-5.86 17.05) rotate(-45)"/>
    <rect x="9.77" y="14.1" width="15.76" height="3" transform="translate(-5.86 17.05) rotate(-45)"/>
  </g>
</svg>