<svg xmlns="http://www.w3.org/2000/svg" width="20" height="20" viewBox="0 0 20 20" fill="none" stroke="#CED0D6" stroke-width="0.833333333333" stroke-linecap="round" stroke-linejoin="round">
  <title>JSON → 타입</title>
  <path d="M5.404375 16.06375 c-1.27125 0 -1.828125 -0.6075 -1.828125 -1.65375 v-2.59875 c0 -1.11375 -0.815625 -1.828125 -1.434375 -1.828125 c0.61875 0 1.434375 -0.714375 1.434375 -1.828125 v-2.59875 c0 -1.04625 0.556875 -1.62 1.828125 -1.558125" />
  <path d="M14.4775 16.06375 c1.26 0 1.94625 -0.6075 1.94625 -1.65375 v-2.59875 c0 -1.11375 0.815625 -1.828125 1.434375 -1.828125 c-0.61875 0 -1.434375 -0.714375 -1.434375 -1.828125 v-2.59875 c0 -1.04625 -0.410625 -1.62 -1.828125 -1.558125" />
  <line x1="6.7375" x2="13.2625" y1="9.9634375" y2="9.9634375" />
  <path d="M11.35 8.1634375 l1.89 1.783125 l-1.985625 1.89" />
</svg>
