<svg xmlns="http://www.w3.org/2000/svg" width="20" height="20" viewBox="0 0 20 20" fill="none" stroke="#6C707E" stroke-width="0.833333333333" stroke-linecap="round" stroke-linejoin="round">
  <title>압축</title>
  <path d="M5.404375 16.06375 c-1.27125 0 -1.828125 -0.6075 -1.828125 -1.65375 v-2.59875 c0 -1.11375 -0.815625 -1.828125 -1.434375 -1.828125 c0.61875 0 1.434375 -0.714375 1.434375 -1.828125 v-2.59875 c0 -1.04625 0.556875 -1.62 1.828125 -1.558125" />
  <path d="M14.4775 16.06375 c1.26 0 1.94625 -0.6075 1.94625 -1.65375 v-2.59875 c0 -1.11375 0.815625 -1.828125 1.434375 -1.828125 c-0.61875 0 -1.434375 -0.714375 -1.434375 -1.828125 v-2.59875 c0 -1.04625 -0.410625 -1.62 -1.828125 -1.558125" />
  <circle cx="6.875" cy="10" r="0.416666666667" fill="#6C707E" stroke="none" />
  <circle cx="10" cy="10" r="0.416666666667" fill="#6C707E" stroke="none" />
  <circle cx="13.125" cy="10" r="0.416666666667" fill="#6C707E" stroke="none" />
</svg>
