<?xml version="1.0" encoding="UTF-8"?>
<svg xmlns="http://www.w3.org/2000/svg" viewBox="0 0 16 16" fill="#6C707E">
    <path d="M8.28,14.42H.95c-.42,0-.77-.3-.77-.74V2.31c0-.38.33-.71.71-.71h7.31c.44,0,.74.28.79.73v11.38c0,.4-.32.71-.73.71ZM8.19,2.4H.97s0,11.24,0,11.24h7.22s0-11.24,0-11.24Z"/>
    <path d="M9.5,13.36l-.02-.79h5.55s0-11.49,0-11.49h-7.59c-.04-.25-.03-.52.04-.8h7.59c.44,0,.77.37.77.8v11.55c0,.36-.31.72-.66.72h-5.66Z"/>
    <path d="M11.87,15.71h-7.34c-.45,0-.79-.31-.8-.8h8.05s.02-1.05.02-1.05h.81s-.02,1.11-.02,1.11c0,.35-.31.75-.72.75Z"/>
    <path d="M13.83,7.83h-3.95s-.03-.81-.03-.81c0-.07.13-.18.2-.18h3.59c.11.01.21.12.21.22l-.02.77Z"/>
    <path d="M6.82,1.09h-3.1c-.03-.36.3-.8.72-.8h2.43s-.05.8-.05.8Z"/>
    <path d="M4.24,10.25c-.05,0-.17-.1-.18-.16v-1.4s-1.42,0-1.42,0c-.09,0-.16-.13-.16-.2v-.7c0-.07.16-.12.24-.12h1.34s0-1.35,0-1.35c0-.04.01-.14.04-.17.03-.04.14-.07.19-.07l.81.02v1.56s1.43,0,1.43,0c.07,0,.18.1.18.17v.68c0,.07-.11.18-.18.18h-1.41s-.02,1.55-.02,1.55l-.85.02Z"/>
</svg>