<?xml version="1.0" encoding="UTF-8"?>
<svg xmlns="http://www.w3.org/2000/svg" viewBox="0 0 16 16" fill="#6C707E">
    <path d="M14.42,12.54c-.32,1.36-1.67,1.65-2.91,1.42v-1.28c.19-.01.32-.02.48,0,.43.03.79-.21.88-.64.07-.32.08-.66.08-1,.04-1.2-.12-2.33,1.11-2.97-1.62-.86-.89-2.65-1.19-4.06-.08-.37-.38-.65-.75-.66l-.61-.02v-1.28c1.17-.25,2.62.07,2.91,1.45.09.4.11.8.12,1.21l.05,1.6c0,.28.11.6.32.77.48.4.98.12.98.53v1.11s-.67.16-.67.16c-.35.08-.56.37-.61.73-.12,1,0,2.07-.21,2.95Z"/>
    <path d="M4.49,13.95c-1.27.25-2.68-.12-2.93-1.55-.2-1.12-.04-1.99-.21-2.9-.06-.32-.28-.56-.6-.64l-.65-.16v-1.2c-.01-.32,1.08,0,1.25-.86s.02-1.89.18-2.94c.22-1.46,1.59-1.93,2.94-1.65v1.28s-.62.02-.62.02c-.75.02-.8.87-.81,1.4-.01.57-.01,1.12-.06,1.68-.06.7-.4,1.28-1.04,1.63,1.32.7,1.05,2.07,1.11,3.36,0,.54.15,1.2.8,1.22l.61.02.02,1.28Z"/>
    <path d="M8.7,6.42c-1.01-.07-1.88.13-2.56.86-.34.37-.52.78-.55,1.29-.3.05-1.12.02-1.29-.02-.05-.01-.09-.14-.09-.21.04-.76.34-1.44.86-2,.93-1,2.24-1.46,3.63-1.34v-1.11c0-.09.03-.2.08-.24s.22-.03.27.01l2.02,1.85c.06.05.12.15.13.21,0,.07-.06.19-.13.25l-2.01,1.8s-.19.04-.24.03c-.06-.02-.11-.12-.11-.2l-.02-1.18Z"/>
    <path d="M7.03,12.52l-2-1.82c-.12-.11-.09-.28.02-.37l1.97-1.76c.05-.05.17-.09.23-.08.07.02.17.13.17.2v1.18c1.37.2,3.07-.64,3.12-2.23h1.15c.12,0,.21.11.21.22,0,.63-.2,1.18-.55,1.69-.88,1.25-2.39,1.86-3.92,1.73v1.02c0,.08-.05.19-.1.23s-.23.04-.29-.02Z"/>
</svg>