<?xml version="1.0" encoding="UTF-8"?>
<svg xmlns="http://www.w3.org/2000/svg" viewBox="0 0 16 16" fill="#CED0D6">
    <path d="M4.42,6.27c-.14.71-.27,2.57,0,3.14s.83.8,1.34.7l.88,2.65.64,1.9.43,1.2c-.73,0-1.32.01-2.03-.02-.24-.01-.5-.44-.59-.72L.14.14h2.01c.69.72.46.65.78,1.56l.51,1.41.5,1.55c.16.49.51,1.07.49,1.61Z"/>
    <path d="M9.42,12.47h-1.08c-.3,0-.41-.2-.41-.5v-2.88s-2.41,0-2.41,0c-.16,0-.4-.11-.4-.36v-1.43c-.02-.12.12-.38.24-.38l2.58-.02v-3c.01-.17.07-.42.21-.42l1.14-.02c.16,0,.4.1.49.25v3.19s2.43,0,2.43,0c.24,0,.37.11.37.41v1.37c0,.27-.17.41-.37.41h-2.42s-.01,2.97-.01,2.97c0,.23-.17.41-.36.41Z"/>
    <path d="M14.46,6.52c-.13-.03-.17-.43-.19-.58l-.32-2.98c-.05-.44,0-.92.01-1.36,0-.3.22-.44.44-.44h.88c.13,0,.31,0,.39.09.37.39.11,2.25.05,2.85l-.2,1.82c-.02.18-.03.56-.2.6-.25.07-.56.05-.86-.01Z"/>
    <path d="M12.23,5.78h-.78s-.23-1.95-.23-1.95c-.09-.79-.1-1.53-.03-2.33.02-.17.21-.34.34-.34h1.01c.12,0,.43.05.44.21.18,1.71-.13,2.54-.16,4.11l-.14.5c-.15-.09-.34-.21-.45-.21Z"/>
</svg>