<?xml version="1.0" encoding="UTF-8"?>
<svg xmlns="http://www.w3.org/2000/svg" viewBox="0 0 16 16" fill="#6C707E">
    <path d="M6.12,6.08s-.12.15-.16.18-.16-.12-.17-.17l-.21-.82c-.21-.85-.2-.85-.91-1.04l-1.06-.29c-.05-.01-.16-.11-.19-.15-.04-.05.12-.19.2-.21.36-.06.8-.15,1.17-.27l.55-.18.3-1c.1-.33.06-.64.35-.88.36.36.06.33.3.9.13.32.22.59.31.95l.64.21c.8.26,1.07.17,1.38.47-.56.34-1.23.32-1.99.68l-.5,1.63Z"/>
    <path d="M13.75,9.98c-.03.09-.06.2-.11.21-.27.04-.25-.86-.56-1.31-.69-.25-.83-.04-1.28-.43.15-.07.32-.16.42-.18l.86-.16.5-1.39c.16.36.27.63.38.95.09.27.12.43.48.48s.71.12,1.01.37c-.58.24-.86.17-1.4.42l-.31,1.04Z"/>
    <path d="M14.28,2.96s-.13.17-.17.16-.14-.1-.15-.14l-.23-.87c-.04-.16-.47-.23-.63-.27l-.58-.15c.14-.36,1.13-.18,1.24-.65l.21-.84s.12-.1.15-.09c.24.12.22.7.4,1.04.31.29.94.27,1.12.41.03.02-.08.13-.13.14l-.96.28-.27.99Z"/>
    <path d="M15.58,4.9c.18,0,.33.27.33.4,0,.18-.05.46-.23.51-.33.1-.59.05-.74-.19-.14-.22-.11-.54.18-.7.1-.02.28-.03.46-.02Z"/>
    <path d="M9.9,1.99c-.2.01-.41-.03-.52-.16-.09-.1-.09-.33-.05-.53.04-.24.36-.33.56-.28.26.06.42.28.41.56,0,.23-.1.4-.4.42Z"/>
    <path d="M.16,14.35c-.27-.4.39-.9.59-1.1l.53-.52.58-.55.39-.39.77-.74,1.08-1.04,1.02-1,.4-.4.64-.6.42-.44.61-.58.48-.5.56-.51c.15-.21.34-.38.54-.56l.61-.57.8-.79.43-.43c.12-.12.46-.28.65-.27.41.02,1.3.94,1.55,1.24.31.37.23.8-.09,1.09l-.54.5-1.14,1.1-.52.53-.39.35-1.07,1.04-1.03,1-1.1,1.06-1.03,1-1.06,1.04-1.07,1.04-.91.89-.51.47c-.1.09-.32.19-.45.2-.16.01-.35-.11-.47-.23l-.43-.41c-.2-.2-.36-.39-.6-.54l-.24-.36ZM11.18,4.13l-.72.75-.45.39c-.42.36-.76.82-1.19,1.16l.4.43c.16.17.33.31.54.49.36-.18.59-.44.84-.73.21-.25.51-.47.74-.7l.76-.76c.15-.15-.11-.27-.21-.36l-.72-.66"/>
</svg>