<?xml version="1.0" encoding="UTF-8"?>
<svg xmlns="http://www.w3.org/2000/svg" viewBox="0 0 16 16" fill="#CED0D6">
    <path d="M7.25,15.64l-1.5-.7-.92-.44-1.26-.61-1.06-.49-1.23-.59c-.38-.18-.77-.3-1.09-.61v-7.94s1.27.62,1.27.62l4.55,2.17c.58.28,1.13.54,1.69.85v7.35s.06.6.06.6c-.18-.07-.31-.12-.5-.21Z"/>
    <path d="M8.93,7.6l1.19-.57.75-.36c.17-.08.32-.17.49-.18l-.04,2.48,1.12-.54.54-.26v-2.43c.26-.24.63-.37.98-.54l1.44-.69c.17-.08.31-.17.51-.2l-.02,1.65v6.34s-3.98,1.87-3.98,1.87l-2.5,1.2-1.02.49v-1.15s0-6.85,0-6.85l.55-.26Z"/>
    <path d="M8.96,6.83c-.3.14-.53.27-.81.48l-5.99-2.84-1.21-.56c-.16-.07-.34-.17-.41-.24l1.01-.46.62-.29c.62-.29.69-.39,1.35-.62l.97.45,2.28,1.09,2.33,1.11,1.91.94-1,.46-1.05.49Z"/>
    <path d="M12.75,5.11l-1.41-.68-2.28-1.08-2.31-1.07c-.41-.19-.81-.41-1.23-.57-.16-.06-.28-.09-.41-.2l.83-.38,1.02-.48c.37-.17.72-.38,1.15-.51l.96.46,4.56,2.16,1.19.57.76.38-.46.2-1.76.82c-.2.09-.4.22-.61.37Z"/>
</svg>