<?xml version="1.0" encoding="UTF-8"?>
<svg xmlns="http://www.w3.org/2000/svg" viewBox="0 0 16 16" fill="#6C707E">
    <path d="M13.6,15.78l-1.69.06c-.34.01-.78-.24-.93-.68l-1.22-3.58c-.19-.56-.37-1.13-.53-1.7.42-.58.34-1.83.31-2.63s-.51-1.31-1.14-1.35c-.18-.01-.38-.05-.57-.09L5.94.2l1.59-.04c.52-.01.84.34,1.03.89l.57,1.64.38,1.14.63,1.89.63,1.81.46,1.32,1.32,3.95.61,1.76.44,1.21Z"/>
    <path d="M8.43,9.08H.46c-.15,0-.29-.31-.29-.46v-1.33c0-.2.16-.38.36-.38h7.82c.2,0,.37.16.37.4v1.31c-.01.17-.12.36-.28.46Z"/>
    <path d="M15.53,5.97c-.02.2-.03.53-.27.57-.27.05-.59.05-.87-.03-.13-.04-.19-.46-.2-.62l-.21-1.75c-.1-.84-.09-1.65-.03-2.51.02-.24.2-.4.39-.4h1.11c.58,0,.35,1.92.3,2.48l-.22,2.25Z"/>
    <path d="M12.28,6.57c-.24,0-.5,0-.74-.01-.08-.12-.16-.42-.18-.59-.17-1.49-.43-3.03-.22-4.47.02-.17.28-.29.42-.28l1.22.05c.47.64-.04,3.72-.16,4.72-.03.23-.03.59-.35.59Z"/>
</svg>