<?xml version="1.0" encoding="UTF-8"?>
<svg id="_레이어_1" data-name="레이어 1" xmlns="http://www.w3.org/2000/svg" viewBox="0 0 16 16" fill="#CED0D6">
    <path d="M3.71,14.99c-.37,0-.69-.09-.97-.28-.27-.19-.48-.46-.62-.83s-.19-.79-.15-1.3l.2-2.57c.04-.53,0-.9-.14-1.13s-.42-.34-.85-.34H0v-1.06h1.18c.42,0,.7-.12.84-.35s.19-.61.15-1.14l-.2-2.57c-.04-.51.01-.95.15-1.31.14-.36.35-.63.62-.82.27-.19.6-.28.97-.28h.48v1.06h-.48c-.3,0-.55.11-.73.34-.18.23-.26.56-.22,1.01l.2,2.57c.03.41,0,.76-.11,1.06s-.27.53-.51.69c-.23.16-.53.24-.9.24v-.06c.36,0,.66.09.9.27s.41.42.51.74.14.67.11,1.08l-.2,2.57c-.03.45.04.78.22,1.01.18.23.42.34.73.34h.48v1.06h-.48Z"/>
    <path d="M12.29,1.01c.37,0,.69.09.97.28.27.19.48.46.62.83s.19.79.15,1.3l-.2,2.57c-.04.53,0,.9.14,1.13s.42.34.85.34h1.18v1.06h-1.18c-.42,0-.7.12-.84.35s-.19.61-.15,1.14l.2,2.57c.04.51-.01.95-.15,1.31-.14.36-.35.63-.62.82-.27.19-.6.28-.97.28h-.48v-1.06h.48c.3,0,.55-.11.73-.34.18-.23.26-.56.22-1.01l-.2-2.57c-.03-.41,0-.76.11-1.06s.27-.53.51-.69c.23-.16.53-.24.9-.24v.06c-.36,0-.66-.09-.9-.27s-.41-.42-.51-.74-.14-.67-.11-1.08l.2-2.57c.03-.45-.04-.78-.22-1.01-.18-.23-.42-.34-.73-.34h-.48v-1.06h.48Z"/>
    <path d="M7.29,11.42v-2.77h-2.73s0-1.31,0-1.31h2.73v-2.77s1.42,0,1.42,0v2.77h2.73s0,1.31,0,1.31h-2.73v2.77s-1.42,0-1.42,0Z"/>
</svg>