<?xml version="1.0" encoding="UTF-8"?>
<svg xmlns="http://www.w3.org/2000/svg" viewBox="0 0 38.74 23.98">
    <g>
        <g>
            <path d="M8.47,0v2.03c-.56,0-1.06.05-1.5.16-.44.11-.78.29-1.01.55s-.33.63-.28,1.1l.46,4.52c.08.77.02,1.41-.19,1.9-.21.5-.54.88-1,1.15s-1.02.46-1.69.58c.69.11,1.26.3,1.72.56.46.26.79.63.98,1.13.2.49.25,1.14.17,1.94l-.46,4.52c-.05.47.04.83.28,1.1s.57.45,1.01.55.94.15,1.5.15v2.03c-.85,0-1.63-.07-2.32-.2-.69-.14-1.28-.36-1.76-.67-.48-.31-.83-.73-1.05-1.26s-.29-1.18-.2-1.96l.46-4.25c.06-.58-.02-1.06-.23-1.43-.21-.37-.58-.65-1.13-.83s-1.29-.27-2.24-.27v-2.22c.94,0,1.69-.09,2.23-.26.55-.18.92-.45,1.13-.82.21-.37.29-.85.23-1.43l-.46-4.25c-.08-.79-.01-1.45.2-1.98.22-.53.57-.95,1.05-1.26s1.07-.53,1.76-.66,1.47-.2,2.32-.2Z"/>
            <path d="M30.28,0c.85,0,1.63.07,2.32.2s1.28.36,1.76.67c.48.31.83.73,1.05,1.26s.29,1.18.2,1.96l-.46,4.26c-.06.58.03,1.06.26,1.43.23.37.63.65,1.18.82.55.18,1.27.26,2.15.26v2.22c-.89,0-1.6.09-2.15.27-.55.18-.94.46-1.18.83-.23.37-.32.85-.26,1.43l.46,4.23c.08.79.01,1.45-.2,1.98-.22.53-.57.95-1.05,1.26-.48.31-1.07.53-1.76.67-.69.14-1.47.2-2.32.2v-2.03c.56,0,1.06-.05,1.5-.15.44-.1.77-.29,1.01-.55s.33-.63.28-1.1l-.46-4.52c-.08-.8-.02-1.45.19-1.94.21-.49.56-.87,1.04-1.13.48-.26,1.09-.44,1.82-.55-.73-.11-1.34-.31-1.82-.58-.48-.27-.83-.66-1.04-1.15-.21-.49-.27-1.13-.19-1.91l.46-4.52c.05-.47-.04-.83-.28-1.1s-.57-.45-1-.55c-.44-.11-.94-.16-1.5-.16V0Z"/>
        </g>
        <path d="M13.72,20.61V3.62h5.66c5.02.02,7.99,3.19,8.02,8.5-.02,5.28-3,8.5-8.16,8.5h-5.52ZM19.09,18.35c3.84,0,5.74-2.23,5.76-6.24-.02-4.01-1.92-6.22-5.62-6.24h-2.93v12.48h2.78Z"/>
    </g>
</svg>