<?xml version="1.0" encoding="UTF-8"?>
<svg xmlns="http://www.w3.org/2000/svg" viewBox="0 0 24 24">
  <g>
    <path d="M4.81,0v1.95c-.27,0-.5.03-.7.09s-.34.17-.43.34c-.1.16-.13.39-.11.7l.21,2.62c.05.66,0,1.2-.16,1.61-.16.41-.41.72-.74.94-.33.22-.72.37-1.17.46.48.09.88.25,1.21.46.33.21.57.52.72.92.15.4.2.94.15,1.61l-.21,2.62c-.02.3.01.53.11.69.1.17.24.28.44.34.2.06.43.09.69.09v1.95c-.61,0-1.13-.06-1.56-.18-.43-.12-.77-.31-1.02-.56s-.43-.59-.53-1.01c-.1-.42-.12-.92-.08-1.52l.2-2.54c.04-.45-.02-.8-.17-1.06s-.37-.43-.66-.54-.62-.16-1-.16v-2.27c.37,0,.7-.05.99-.16.29-.1.51-.28.66-.54.15-.25.21-.61.17-1.06l-.2-2.52c-.05-.61-.03-1.12.07-1.54.1-.42.27-.76.53-1.02.26-.26.6-.44,1.03-.56s.95-.17,1.56-.17Z"/>
    <path d="M10.02,4.68v2.95h3.2v2.04h-3.2v3.14h3.86v2.08h-6.05V2.61h6.04l-.22,2.08h-3.63Z"/>
    <path d="M16.37,0c.61,0,1.13.06,1.56.18.43.12.77.31,1.02.56.26.26.43.59.53,1.01.1.42.12.92.07,1.52l-.2,2.54c-.04.45.02.8.17,1.06.15.25.37.43.66.54.29.1.62.16,1,.16v2.27c-.37,0-.7.05-.99.16s-.51.28-.66.54c-.15.25-.21.61-.17,1.06l.2,2.52c.05.61.03,1.12-.07,1.54-.1.42-.27.76-.53,1.02-.26.26-.6.44-1.03.56-.43.12-.95.17-1.56.17v-1.95c.27,0,.5-.03.7-.09.19-.06.34-.18.43-.34.1-.17.13-.4.11-.69l-.21-2.62c-.05-.67,0-1.21.16-1.61.16-.41.41-.72.74-.93.33-.22.72-.37,1.17-.46-.48-.09-.88-.25-1.21-.46-.33-.21-.57-.52-.72-.93-.15-.41-.2-.94-.15-1.61l.21-2.62c.02-.3-.01-.53-.11-.7-.1-.16-.24-.28-.43-.34s-.43-.09-.7-.09V0Z"/>
  </g>
</svg>