<?xml version="1.0" encoding="UTF-8"?>
<svg id="_레이어_1" data-name="레이어 1" xmlns="http://www.w3.org/2000/svg" width="16" height="16" viewBox="0 0 32 32">
    <g fill="#AFB1B3">
        <path d="M4.09,14.5c-.41,0-.76-.09-1.07-.26-.3-.17-.53-.42-.68-.76s-.21-.73-.16-1.19l.22-2.36c.04-.48,0-.83-.16-1.03s-.46-.31-.93-.31H0v-.97h1.3c.47,0,.78-.11.93-.32s.21-.56.16-1.04l-.22-2.36c-.04-.47.01-.87.16-1.2.15-.33.38-.58.68-.75.3-.17.66-.26,1.07-.26h.53v.97h-.53c-.34,0-.6.1-.8.31-.2.21-.28.52-.25.93l.22,2.36c.04.37,0,.7-.12.97s-.3.49-.56.63c-.25.15-.59.22-.99.22v-.05c.4,0,.73.08.99.25s.45.39.56.67.16.62.12.99l-.22,2.36c-.04.41.05.72.25.93.2.21.47.31.8.31h.53v.97h-.53Z"/>
        <path d="M11.91,1.5c.41,0,.76.09,1.07.26.3.17.53.42.68.76s.21.73.16,1.19l-.22,2.36c-.04.48,0,.83.16,1.03s.46.31.93.31h1.3s0,.97,0,.97h-1.3c-.47,0-.78.11-.93.32s-.21.56-.16,1.04l.22,2.36c.04.47-.01.87-.16,1.2-.15.33-.38.58-.68.75-.3.17-.66.26-1.07.26h-.53s0-.97,0-.97h.53c.34,0,.6-.1.8-.31.2-.21.28-.52.25-.93l-.22-2.36c-.04-.37,0-.7.12-.97s.3-.49.56-.63c.25-.15.59-.22.99-.22v.05c-.4,0-.73-.08-.99-.25s-.45-.39-.56-.67-.16-.62-.12-.99l.22-2.36c.04-.41-.05-.72-.25-.93-.2-.21-.47-.31-.8-.31h-.53s0-.97,0-.97h.53Z"/>
        <path d="M10.14,10.91l-2.18-2.18-2.12,2.12-.78-.78,2.12-2.12-2.18-2.18.86-.86,2.18,2.18,2.12-2.12.78.78-2.12,2.12,2.18,2.18-.86.86Z"/>
    </g>
</svg>
