<?xml version="1.0" encoding="UTF-8"?>
<svg xmlns="http://www.w3.org/2000/svg" viewBox="0 0 20.87 17.41">
  <g>
    <g>
      <path d="M4.45,0v1.18c-.32,0-.62.04-.88.13-.26.09-.47.23-.61.44-.14.21-.21.5-.18.86l.28,3.68c.04.5.02.92-.07,1.25s-.23.59-.42.77c-.2.19-.45.32-.76.39.31.07.57.2.77.37.2.18.34.43.42.75.08.33.1.75.06,1.29l-.28,3.68c-.02.37.04.66.18.87.14.21.35.36.61.44s.56.13.89.13v1.18c-.37,0-.73-.04-1.07-.13-.34-.09-.64-.23-.91-.44-.26-.21-.46-.49-.59-.86-.13-.36-.18-.82-.13-1.37l.27-3.41c.04-.41,0-.76-.08-1.04-.09-.28-.29-.49-.59-.64-.3-.15-.75-.22-1.34-.22v-1.2c.6,0,1.04-.07,1.34-.22.3-.14.5-.36.59-.64.09-.28.12-.62.08-1.03l-.27-3.42c-.04-.55,0-1.01.13-1.37s.33-.65.59-.86c.26-.21.56-.36.91-.44.34-.09.7-.13,1.08-.13Z"/>
      <path d="M16.41,0c.37,0,.73.04,1.07.13.34.09.64.23.91.44.26.21.46.49.6.86s.18.82.13,1.37l-.27,3.42c-.04.41,0,.75.12,1.03.11.28.32.49.62.64s.73.22,1.27.22v1.2c-.54,0-.97.07-1.27.22-.3.15-.51.36-.63.64-.11.28-.15.63-.12,1.04l.27,3.41c.04.55,0,1.01-.13,1.37-.13.36-.33.65-.59.86-.26.21-.56.36-.91.44-.34.09-.7.13-1.08.13v-1.18c.32,0,.62-.04.88-.13.26-.08.47-.23.62-.44.15-.21.21-.5.18-.87l-.28-3.68c-.04-.53-.02-.96.07-1.29.08-.33.24-.58.46-.75.22-.17.51-.29.87-.36-.35-.08-.63-.21-.85-.4-.22-.19-.37-.45-.46-.78s-.12-.74-.08-1.25l.28-3.68c.03-.36-.03-.65-.18-.86-.15-.21-.35-.36-.61-.44-.26-.09-.56-.13-.89-.13V0Z"/>
    </g>
    <path d="M10.59,14.13c-.89,0-1.67-.22-2.33-.65s-1.17-1.08-1.53-1.94c-.36-.86-.54-1.95-.54-3.25,0-.97.13-1.82.39-2.55s.61-1.33,1.06-1.82c.45-.49.95-.85,1.52-1.09.57-.24,1.15-.36,1.76-.36.74,0,1.35.11,1.84.32s.95.52,1.4.92l-.86.89c-.34-.32-.71-.56-1.09-.71-.38-.15-.81-.23-1.28-.23-.41,0-.81.08-1.19.24-.38.16-.73.42-1.03.78-.3.36-.54.83-.72,1.42-.18.59-.27,1.32-.27,2.2,0,1.09.11,1.97.34,2.66.23.68.56,1.19,1.01,1.51s1,.48,1.65.48c.39,0,.77-.05,1.12-.14.35-.09.7-.23,1.03-.4v-3.45h-2.22l-.17-1.18h3.81v5.38c-.51.27-1.05.51-1.62.7s-1.26.29-2.07.29Z"/>
  </g>
</svg>