<?xml version="1.0" encoding="UTF-8"?>
<svg xmlns="http://www.w3.org/2000/svg" viewBox="0 0 13 13" fill="#CED0D6">
    <path d="M6.73,11.83H.64c-.35,0-.64-.25-.64-.61V1.77C0,1.46.28,1.18.6,1.18h6.08c.37,0,.62.24.66.6v9.45c0,.33-.27.59-.6.59ZM6.65,1.84H.66s0,9.34,0,9.34h6s0-9.34,0-9.34Z"/>
    <path d="M7.74,10.96l-.02-.66h4.61s0-9.55,0-9.55h-6.31c-.03-.21-.02-.43.03-.67h6.31c.37,0,.64.31.64.67v9.6c0,.3-.26.6-.55.6h-4.7Z"/>
    <path d="M9.72,12.91H3.62c-.37,0-.65-.25-.66-.67h6.69s.02-.87.02-.87h.67s-.01.92-.01.92c0,.29-.26.62-.6.62Z"/>
    <path d="M11.34,6.36h-3.28s-.03-.68-.03-.68c0-.06.11-.15.17-.15h2.98c.09.01.17.1.17.18l-.02.64Z"/>
    <path d="M5.52.76h-2.58c-.02-.3.25-.66.6-.66h2.02s-.04.66-.04.66Z"/>
    <path d="M3.37,8.37s-.15-.08-.15-.13v-1.16s-1.18,0-1.18,0c-.07,0-.13-.1-.13-.16v-.58c0-.06.13-.1.2-.1h1.11s0-1.12,0-1.12c0-.04.01-.11.03-.14.02-.03.11-.06.16-.06l.67.02v1.3s1.19,0,1.19,0c.05,0,.15.08.15.14v.57c0,.06-.09.15-.15.15h-1.17s-.01,1.28-.01,1.28l-.71.02Z"/>
</svg>