<?xml version="1.0" encoding="UTF-8"?>
<svg xmlns="http://www.w3.org/2000/svg" viewBox="0 0 20 20" fill="#CED0D6">
    <path d="M10.35,18.13H1.07c-.54,0-.97-.38-.97-.93V2.79c0-.48.42-.9.91-.9h9.26c.56,0,.94.36,1,.92v14.41c-.01.5-.41.9-.92.9ZM10.24,2.9H1.1s0,14.23,0,14.23h9.14s0-14.23,0-14.23Z"/>
    <path d="M11.9,16.79l-.03-1h7.02s0-14.55,0-14.55h-9.62c-.05-.32-.03-.66.05-1.02h9.61c.56,0,.97.47.97,1.02v14.63c0,.46-.39.91-.84.91h-7.17Z"/>
    <path d="M14.91,19.77H5.61c-.57,0-1-.39-1.01-1.02h10.2s.02-1.33.02-1.33l1.02.02-.02,1.39c0,.45-.39.95-.92.95Z"/>
    <path d="M17.38,9.79h-5s-.04-1.03-.04-1.03c0-.09.16-.22.26-.22l4.54.02c.14,0,.26.14.26.26l-.02.98Z"/>
    <path d="M8.5,1.25h-3.93c-.03-.46.38-1.01.91-1.01h3.07s-.06,1.01-.06,1.01Z"/>
    <path d="M5.24,12.85c-.07,0-.22-.13-.22-.21v-1.78s-1.8,0-1.8,0c-.11,0-.2-.16-.2-.25v-.89c.01-.09.2-.16.31-.16h1.69s0-1.7,0-1.7c0-.06.02-.17.05-.21.04-.05.17-.09.24-.09l1.02.03.02,1.98h1.79c.08,0,.22.12.22.21v.87c0,.09-.14.22-.23.22h-1.79s-.02,1.96-.02,1.96l-1.08.02Z"/>
</svg>