<?xml version="1.0" encoding="UTF-8"?>
<svg xmlns="http://www.w3.org/2000/svg" viewBox="0 0 20 20" fill="#6C707E">
    <path d="M5.54,7.84c-.17.89-.34,3.2,0,3.92s1.04,1,1.67.87l1.1,3.3.8,2.37.53,1.49c-.91,0-1.65.02-2.53-.03-.3-.02-.62-.55-.74-.9L.2.2h2.5c.86.9.57.81.98,1.94l.63,1.76.62,1.93c.2.61.63,1.34.61,2Z"/>
    <path d="M11.77,15.58h-1.35c-.37,0-.5-.25-.51-.63v-3.59s-3,0-3,0c-.2,0-.5-.13-.5-.44l-.02-1.78c0-.15.17-.48.31-.48l3.21-.02v-3.74c.02-.21.09-.52.26-.53l1.42-.02c.19,0,.5.13.61.32v3.97s3.03,0,3.03,0c.3,0,.47.14.47.52v1.71c0,.34-.21.51-.46.51h-3.02s-.02,3.71-.02,3.71c0,.28-.22.51-.44.51Z"/>
    <path d="M18.05,8.15c-.16-.03-.22-.54-.24-.72l-.4-3.72c-.06-.55,0-1.14.02-1.69,0-.37.27-.54.54-.54h1.1c.16,0,.39,0,.48.11.46.49.14,2.8.06,3.56l-.24,2.27c-.02.22-.04.7-.25.75-.32.08-.69.07-1.07-.01Z"/>
    <path d="M15.28,7.23h-.98s-.29-2.43-.29-2.43c-.12-.98-.13-1.9-.04-2.9.02-.22.26-.43.43-.43h1.25c.15,0,.53.06.55.26.23,2.14-.16,3.17-.2,5.13l-.17.63c-.19-.12-.42-.26-.56-.26Z"/>
</svg>