<?xml version="1.0" encoding="UTF-8"?>
<svg xmlns="http://www.w3.org/2000/svg" viewBox="0 0 13 13" fill="#CED0D6">
    <path d="M3.67,5.13c-.11.56-.21,2.03,0,2.49s.66.63,1.06.55l.7,2.1.5,1.51.34.95c-.58,0-1.05.01-1.6-.02-.19-.01-.4-.35-.47-.57L.28.28h1.59c.54.57.36.51.62,1.23l.4,1.12.4,1.23c.12.38.4.85.39,1.27Z"/>
    <path d="M7.63,10.04h-.86c-.23,0-.32-.16-.32-.4v-2.28s-1.9,0-1.9,0c-.13,0-.32-.09-.32-.28v-1.13c-.01-.09.1-.3.19-.3h2.04s0-2.39,0-2.39c0-.13.05-.33.16-.33l.9-.02c.12,0,.31.08.39.2v2.52s1.92,0,1.92,0c.19,0,.3.09.3.33v1.08c0,.21-.13.32-.3.32h-1.92s-.01,2.35-.01,2.35c0,.18-.14.32-.28.32Z"/>
    <path d="M11.61,5.33c-.1-.02-.14-.34-.15-.46l-.25-2.36c-.04-.35,0-.73.01-1.07,0-.24.17-.35.35-.35h.7c.1,0,.25,0,.31.07.29.31.09,1.78.04,2.26l-.16,1.44c-.01.14-.03.44-.16.48-.2.05-.44.04-.68,0Z"/>
    <path d="M9.85,4.74h-.62s-.18-1.54-.18-1.54c-.07-.62-.08-1.21-.02-1.84.01-.14.17-.27.27-.27h.8c.1,0,.34.04.35.16.15,1.36-.1,2.01-.13,3.26l-.11.4c-.12-.07-.27-.17-.35-.17Z"/>
</svg>