<?xml version="1.0" encoding="UTF-8"?>
<svg xmlns="http://www.w3.org/2000/svg" viewBox="0 0 13 13" fill="#CED0D6">
    <path d="M11.67,10.16c-.26,1.1-1.34,1.33-2.34,1.14v-1.03c.15,0,.26-.01.39,0,.35.02.64-.17.71-.51.06-.26.07-.53.07-.81.03-.97-.09-1.88.89-2.4-1.31-.7-.72-2.14-.96-3.27-.06-.3-.3-.52-.61-.53h-.49s-.01-1.05-.01-1.05c.96-.2,2.12.06,2.36,1.17.07.32.09.64.1.97l.04,1.29c0,.23.09.48.26.62.39.32.79.09.79.43v.89s-.54.13-.54.13c-.28.07-.45.3-.49.59-.1.8,0,1.67-.17,2.38Z"/>
    <path d="M3.67,11.3c-1.02.21-2.16-.1-2.37-1.25-.16-.9-.03-1.6-.17-2.34-.05-.26-.23-.45-.48-.52l-.52-.13v-.97c-.01-.26.87,0,1.01-.7s.02-1.52.15-2.37c.18-1.18,1.28-1.55,2.37-1.33v1.04s-.5.01-.5.01c-.61.02-.64.7-.65,1.13,0,.46,0,.91-.05,1.36-.05.56-.32,1.03-.84,1.32,1.06.57.85,1.67.9,2.71,0,.43.12.97.64.99l.5.02.02,1.03Z"/>
    <path d="M7.06,5.23c-.82-.05-1.52.1-2.07.69-.28.29-.42.62-.44,1.04-.24.04-.9.01-1.04-.02-.04-.01-.07-.11-.07-.17.03-.62.28-1.16.69-1.61.75-.81,1.81-1.17,2.93-1.08v-.9c0-.07.02-.16.06-.19s.18-.03.22,0l1.63,1.49s.1.12.1.17c0,.06-.05.15-.11.2l-1.62,1.45s-.16.03-.2.02c-.05-.02-.09-.1-.09-.16v-.95Z"/>
    <path d="M5.72,10.15l-1.61-1.47c-.09-.09-.07-.22.02-.3l1.58-1.42s.14-.07.19-.06c.05.01.14.11.14.16v.95c1.1.16,2.48-.52,2.51-1.79h.93c.09,0,.17.09.17.18,0,.51-.16.96-.45,1.37-.71,1.01-1.93,1.5-3.16,1.4v.82c0,.06-.04.16-.08.18s-.19.03-.23-.01Z"/>
</svg>