<?xml version="1.0" encoding="UTF-8"?>
<svg xmlns="http://www.w3.org/2000/svg" viewBox="0 0 20 20" fill="#6C707E">
    <path d="M18.9,15.69c-.24,1.7-1.23,2.07-2.15,1.77v-1.61c.14-.02.24-.02.35,0,.32.04.58-.26.65-.8.05-.4.06-.83.06-1.25.03-1.51-.09-2.92.82-3.72-1.2-1.08-.66-3.32-.88-5.08-.06-.47-.28-.81-.56-.82l-.45-.02v-1.6c.87-.31,1.93.09,2.15,1.81.06.5.08,1,.09,1.51l.04,2c0,.35.08.75.24.97.36.5.73.14.72.66v1.38s-.5.2-.5.2c-.26.11-.41.46-.45.91-.09,1.25,0,2.6-.16,3.7Z"/>
    <path d="M3.25,17.46c-.93.32-1.97-.16-2.16-1.94-.15-1.4-.03-2.49-.16-3.64-.04-.4-.21-.7-.44-.8l-.48-.2v-1.5c0-.4.8,0,.92-1.08s.02-2.37.13-3.68c.16-1.83,1.17-2.41,2.17-2.07v1.61s-.46.02-.46.02c-.55.03-.59,1.09-.6,1.75,0,.72,0,1.41-.04,2.11-.05.87-.29,1.6-.77,2.04.97.88.78,2.6.82,4.21,0,.67.11,1.5.59,1.53l.45.03.02,1.61Z"/>
    <g>
        <path d="M11.05,7.26c-1.65-.11-3.07.21-4.18,1.4-.56.6-.85,1.26-.89,2.11-.49.08-1.83.03-2.1-.04-.09-.02-.15-.23-.14-.33.07-1.25.56-2.35,1.4-3.26,1.52-1.64,3.65-2.37,5.93-2.18v-1.81c-.01-.14.04-.33.13-.39s.37-.05.44.02l3.3,3.02c.09.09.2.25.21.34.01.12-.1.3-.21.41l-3.27,2.93c-.07.06-.31.07-.39.04-.09-.03-.18-.2-.18-.33l-.03-1.93Z"/>
        <path d="M8.33,17.21l-3.27-2.97c-.19-.17-.14-.45.04-.61l3.21-2.88c.08-.08.29-.15.38-.13.11.03.28.22.28.33v1.92c2.23.32,5.01-1.05,5.09-3.63h1.88c.19-.01.34.18.34.36,0,1.03-.32,1.93-.9,2.76-1.43,2.04-3.9,3.03-6.4,2.83v1.66c0,.13-.08.32-.16.37s-.38.06-.48-.03Z"/>
    </g>
</svg>