<?xml version="1.0" encoding="UTF-8"?>
<svg xmlns="http://www.w3.org/2000/svg" viewBox="0 0 20 20" fill="#CED0D6">
    <path d="M18.13,15.59c-.4,1.7-2.09,2.07-3.64,1.77v-1.61c.23-.02.4-.02.6,0,.54.04.99-.26,1.11-.8.09-.4.1-.83.11-1.25.05-1.51-.15-2.92,1.39-3.72-2.04-1.08-1.12-3.32-1.49-5.08-.1-.47-.47-.81-.94-.82l-.76-.02-.02-1.6c1.49-.31,3.3.09,3.67,1.81.11.5.14,1,.15,1.51l.07,2c.01.35.14.75.41.97.6.5,1.23.14,1.23.66v1.38s-.85.2-.85.2c-.44.11-.7.46-.76.91-.15,1.25,0,2.6-.26,3.7Z"/>
    <path d="M5.7,17.36c-1.59.32-3.35-.16-3.68-1.94-.25-1.4-.05-2.49-.26-3.64-.08-.4-.36-.7-.75-.8l-.81-.2v-1.5c-.02-.4,1.35,0,1.57-1.08s.03-2.37.23-3.68c.28-1.83,1.99-2.41,3.69-2.07v1.61s-.77.02-.77.02c-.94.03-1,1.09-1.01,1.75-.01.72-.01,1.41-.08,2.11-.08.87-.5,1.6-1.31,2.04,1.65.88,1.32,2.6,1.4,4.21,0,.67.19,1.5,1,1.53l.77.03.03,1.61Z"/>
    <path d="M10.96,7.93c-1.27-.08-2.35.16-3.21,1.08-.43.46-.65.97-.68,1.62-.37.06-1.41.02-1.62-.03-.07-.02-.11-.17-.11-.26.05-.96.43-1.81,1.08-2.5,1.17-1.26,2.81-1.82,4.55-1.68v-1.39c0-.11.03-.26.1-.3s.28-.04.34.02l2.53,2.32c.07.07.15.19.16.26,0,.09-.07.23-.16.31l-2.51,2.25c-.05.05-.24.05-.3.03-.07-.03-.14-.16-.14-.25l-.02-1.48Z"/>
    <path d="M8.87,15.57l-2.51-2.28c-.15-.13-.11-.35.03-.47l2.46-2.21c.06-.06.22-.12.29-.1.08.02.21.17.21.25v1.48c1.72.25,3.85-.81,3.91-2.79h1.45c.15,0,.26.14.26.27,0,.79-.25,1.48-.69,2.12-1.1,1.57-3,2.33-4.91,2.17v1.28c0,.1-.06.24-.12.29s-.29.04-.37-.02Z"/>
</svg>