<?xml version="1.0" encoding="UTF-8"?>
<svg xmlns="http://www.w3.org/2000/svg" viewBox="0 0 13 13" fill="#CED0D6">
    <path d="M12.28,10.2c-.15,1.11-.8,1.35-1.4,1.15v-1.04c.09,0,.15-.01.23,0,.21.02.38-.17.42-.52.03-.26.04-.54.04-.81.02-.98-.06-1.9.53-2.42-.78-.7-.43-2.16-.57-3.3-.04-.3-.18-.53-.36-.53h-.29s0-1.06,0-1.06c.57-.2,1.26.06,1.41,1.18.04.32.05.65.06.98l.02,1.3c0,.23.05.49.16.63.23.33.47.09.47.43v.9s-.32.13-.32.13c-.17.07-.27.3-.29.59-.06.81,0,1.69-.1,2.4Z"/>
    <path d="M2.11,11.35c-.61.21-1.28-.1-1.41-1.26-.1-.91-.02-1.62-.1-2.36-.03-.26-.14-.46-.29-.52L0,7.07v-.98c0-.26.52,0,.6-.7s.01-1.54.09-2.39c.11-1.19.76-1.57,1.41-1.35v1.05s-.3.01-.3.01c-.36.02-.38.71-.39,1.14,0,.47,0,.92-.03,1.37-.03.57-.19,1.04-.5,1.33.63.57.51,1.69.53,2.74,0,.44.07.98.38,1l.29.02v1.04Z"/>
    <g>
        <path d="M7.18,4.72c-1.08-.07-1.99.14-2.72.91-.36.39-.55.82-.58,1.37-.32.05-1.19.02-1.37-.02-.06-.01-.1-.15-.09-.22.04-.81.37-1.53.91-2.12.99-1.07,2.37-1.54,3.85-1.42v-1.18c0-.09.03-.22.08-.25s.24-.03.29.01l2.14,1.96c.06.06.13.16.13.22,0,.07-.06.2-.14.27l-2.13,1.91s-.2.05-.26.03c-.06-.02-.12-.13-.12-.21l-.02-1.25Z"/>
        <path d="M5.41,11.19l-2.12-1.93c-.12-.11-.09-.29.02-.4l2.08-1.87c.05-.05.19-.1.25-.08.07.02.18.14.18.21v1.25c1.45.21,3.26-.68,3.31-2.36h1.22c.12,0,.22.11.22.23,0,.67-.21,1.26-.59,1.8-.93,1.33-2.54,1.97-4.16,1.84v1.08c0,.09-.05.2-.1.24s-.25.04-.31-.02Z"/>
    </g>
</svg>