<?xml version="1.0" encoding="UTF-8"?>
<svg xmlns="http://www.w3.org/2000/svg" viewBox="0 0 16 16" fill="#6C707E">
    <path d="M15.12,12.55c-.19,1.36-.98,1.66-1.72,1.42v-1.28c.11-.01.19-.02.28,0,.25.03.47-.21.52-.64.04-.32.05-.66.05-1,.02-1.21-.07-2.33.66-2.98-.96-.87-.53-2.66-.7-4.07-.05-.37-.22-.65-.44-.66l-.36-.02v-1.28c.69-.25,1.55.07,1.72,1.45.05.4.06.8.07,1.21l.03,1.6c0,.28.07.6.19.77.28.4.58.12.58.53v1.11s-.4.16-.4.16c-.21.08-.33.37-.36.73-.07,1,0,2.08-.12,2.96Z"/>
    <path d="M2.6,13.97c-.75.26-1.58-.12-1.73-1.56-.12-1.12-.02-1.99-.12-2.91-.04-.32-.17-.56-.35-.64l-.38-.16v-1.2c0-.32.64,0,.74-.87.1-.84.01-1.89.11-2.94.13-1.47.94-1.93,1.74-1.66v1.29s-.36.02-.36.02c-.44.02-.47.87-.48,1.4,0,.57,0,1.13-.04,1.69-.04.7-.24,1.28-.62,1.64.78.7.62,2.08.66,3.37,0,.54.09,1.2.47,1.23l.36.02v1.28Z"/>
    <g>
        <path d="M8.84,5.81c-1.32-.09-2.45.17-3.34,1.12-.45.48-.68,1.01-.71,1.69-.39.06-1.46.02-1.68-.03-.07-.02-.12-.18-.11-.27.05-1,.45-1.88,1.12-2.61,1.22-1.31,2.92-1.9,4.74-1.75v-1.45c-.01-.11.03-.27.1-.31s.29-.04.35.02l2.64,2.41c.07.07.16.2.17.28,0,.09-.08.24-.17.33l-2.62,2.34c-.05.05-.25.06-.32.03-.07-.03-.14-.16-.14-.26l-.02-1.54Z"/>
        <path d="M6.66,13.77l-2.61-2.37c-.15-.14-.11-.36.03-.49l2.56-2.3c.07-.06.23-.12.3-.1.09.02.22.18.22.26v1.54c1.79.26,4.01-.84,4.07-2.9h1.51c.15,0,.27.14.27.28,0,.82-.26,1.55-.72,2.21-1.15,1.63-3.12,2.43-5.12,2.26v1.33c0,.11-.06.25-.13.3s-.31.05-.38-.02Z"/>
    </g>
</svg>