<?xml version="1.0" encoding="UTF-8"?>
<svg xmlns="http://www.w3.org/2000/svg" viewBox="0 0 13 13" fill="#CED0D6">
    <path d="M4.99,4.96s-.09.12-.13.14-.13-.1-.14-.14l-.17-.66c-.17-.68-.16-.68-.73-.84l-.85-.23s-.13-.08-.16-.12c-.03-.04.1-.16.16-.17.29-.05.64-.12.94-.22l.44-.14.24-.8c.08-.26.05-.51.28-.71.29.29.05.26.24.72.11.25.17.48.25.76l.51.17c.64.21.86.14,1.1.37-.45.27-.99.25-1.6.54l-.4,1.31Z"/>
    <path d="M11.12,8.09c-.02.08-.05.16-.09.17-.22.03-.2-.69-.45-1.05-.56-.2-.66-.03-1.03-.34.12-.05.26-.13.34-.14l.69-.13.4-1.12c.13.29.22.5.31.76.07.21.09.35.38.38s.57.1.81.29c-.47.19-.69.14-1.12.34l-.25.83Z"/>
    <path d="M11.54,2.45s-.1.13-.14.12-.11-.08-.12-.12l-.19-.7c-.03-.13-.37-.18-.51-.22l-.47-.12c.11-.29.91-.15,1-.52l.16-.67s.09-.08.12-.07c.19.1.18.56.32.83.25.23.75.22.9.33.02.02-.07.1-.1.11l-.77.23-.21.8Z"/>
    <path d="M12.59,4.01c.15,0,.26.22.26.32,0,.15-.04.37-.18.41-.26.08-.47.04-.59-.15-.11-.18-.09-.43.14-.56.08-.02.23-.02.37-.02Z"/>
    <path d="M8.02,1.68c-.16.01-.33-.02-.42-.13-.07-.08-.07-.27-.04-.43.03-.19.29-.26.45-.23.21.04.34.22.33.45,0,.18-.08.32-.32.34Z"/>
    <path d="M.2,11.6c-.22-.32.31-.72.47-.88l.43-.42.46-.44.31-.31.62-.59.86-.83.82-.8.32-.32.52-.48.34-.35.49-.46.38-.4.45-.41c.12-.16.27-.3.43-.45l.49-.46.64-.63.35-.35c.1-.1.37-.22.53-.21.33.02,1.04.76,1.25,1,.25.29.18.64-.07.88l-.44.4-.92.88-.41.42-.31.28-.86.83-.83.8-.89.85-.83.8-.85.84-.86.83-.73.71-.41.38c-.08.07-.26.15-.36.16-.13.01-.28-.09-.38-.19l-.35-.33c-.16-.16-.29-.32-.48-.44l-.2-.29ZM9.05,3.39l-.57.6-.36.32c-.33.29-.61.66-.95.93l.32.35c.13.14.27.25.43.39.29-.14.47-.35.67-.59.17-.2.41-.38.6-.56l.61-.61c.12-.12-.08-.22-.17-.29l-.58-.53"/>
</svg>