<?xml version="1.0" encoding="UTF-8"?>
<svg xmlns="http://www.w3.org/2000/svg" viewBox="0 0 20 20" fill="#CED0D6">
    <path d="M7.64,7.59c-.02.06-.15.19-.2.22s-.2-.15-.22-.22l-.26-1.03c-.27-1.06-.25-1.06-1.15-1.31l-1.33-.36c-.07-.02-.2-.13-.24-.19-.05-.07.15-.24.25-.26.46-.08,1-.19,1.47-.34l.69-.23.38-1.25c.13-.41.08-.8.44-1.1.45.45.08.41.38,1.13.17.4.27.75.38,1.19l.81.27c1.01.33,1.34.22,1.73.59-.7.43-1.55.4-2.5.85l-.63,2.04Z"/>
    <path d="M17.23,12.49c-.04.12-.07.26-.14.27-.34.05-.32-1.08-.7-1.64-.87-.32-1.04-.05-1.61-.54.18-.09.4-.2.53-.23l1.08-.2.63-1.75c.2.46.34.79.48,1.19.11.33.14.54.6.6s.89.15,1.27.46c-.73.3-1.09.21-1.76.53l-.38,1.3Z"/>
    <path d="M17.89,3.66c-.02.06-.16.21-.22.2s-.17-.12-.19-.18l-.29-1.1c-.05-.2-.59-.29-.79-.34l-.73-.19c.17-.46,1.42-.23,1.56-.82l.26-1.05s.15-.13.19-.11c.3.15.28.88.5,1.3.39.36,1.18.34,1.41.52.04.03-.11.16-.16.17l-1.21.36-.33,1.25Z"/>
    <path d="M19.53,6.1c.23.01.41.34.41.5,0,.23-.07.57-.28.64-.41.12-.74.06-.92-.24-.17-.28-.14-.68.22-.88.12-.02.36-.04.57-.02Z"/>
    <path d="M12.38,2.45c-.25.02-.52-.04-.66-.2-.11-.13-.11-.42-.07-.67.05-.3.45-.41.71-.35.33.07.53.35.52.7-.01.28-.12.5-.5.53Z"/>
    <path d="M.14,17.98c-.34-.5.49-1.13.74-1.38l.67-.66.72-.69.49-.49.97-.92,1.35-1.31,1.28-1.26.51-.5.81-.76.53-.55.77-.72.6-.63.7-.65c.19-.26.42-.48.68-.71l.77-.72,1-.99.54-.54c.15-.16.58-.35.82-.34.51.03,1.64,1.19,1.95,1.56.39.46.29,1-.12,1.37l-.68.63-1.43,1.38-.65.66-.49.44-1.35,1.3-1.3,1.26-1.39,1.33-1.29,1.26-1.34,1.31-1.34,1.3-1.14,1.11-.64.59c-.12.11-.41.23-.56.25-.2.02-.43-.14-.59-.29l-.54-.52c-.26-.25-.45-.49-.75-.68l-.31-.46ZM14,5.14l-.9.94-.57.49c-.52.46-.96,1.03-1.49,1.45l.5.55c.2.22.42.39.67.61.45-.22.74-.55,1.05-.92.26-.31.64-.59.93-.88l.96-.96c.19-.19-.13-.34-.26-.45l-.9-.83"/>
</svg>