<?xml version="1.0" encoding="UTF-8"?>
<svg xmlns="http://www.w3.org/2000/svg" viewBox="0 0 20 20" fill="#CED0D6">
    <path d="M9.05,19.66l-1.9-.88-1.16-.55-1.6-.78-1.34-.62-1.55-.75c-.48-.23-.98-.38-1.38-.77V5.27s1.6.78,1.6.78l5.76,2.75c.74.35,1.42.68,2.13,1.07v9.29s.07.76.07.76c-.22-.09-.4-.16-.63-.27Z"/>
    <path d="M11.18,9.49l1.5-.72.94-.46c.22-.11.41-.22.62-.23l-.05,3.14,1.42-.69.69-.33v-3.08c.33-.3.8-.47,1.24-.68l1.81-.87c.21-.1.4-.22.65-.25l-.03,2.08v8.02s-5.03,2.37-5.03,2.37l-3.17,1.52-1.29.62v-1.46s0-8.66,0-8.66l.69-.33Z"/>
    <path d="M11.21,8.52c-.38.18-.68.35-1.02.61l-7.57-3.59-1.53-.71c-.2-.09-.43-.21-.52-.31l1.27-.58.79-.37c.79-.37.88-.49,1.71-.79l1.22.57,2.88,1.38,2.95,1.4,2.41,1.19-1.26.59-1.33.62Z"/>
    <path d="M16.01,6.35l-1.78-.86-2.89-1.37-2.92-1.35c-.52-.24-1.02-.52-1.55-.73-.2-.08-.35-.11-.52-.25l1.05-.48,1.29-.61c.47-.22.92-.48,1.45-.65l1.21.58,5.76,2.73,1.51.72.96.49-.58.26-2.22,1.04c-.25.12-.5.28-.77.47Z"/>
</svg>