<?xml version="1.0" encoding="UTF-8"?>
<svg xmlns="http://www.w3.org/2000/svg" viewBox="0 0 13 13" fill="#6C707E">
    <path d="M5.83,12.68l-1.21-.56-.74-.35-1.02-.5-.86-.4-.99-.48c-.31-.15-.63-.24-.88-.49V3.48s1.02.5,1.02.5l3.68,1.76c.47.23.91.43,1.36.68v5.94s.05.49.05.49c-.14-.05-.25-.1-.41-.17Z"/>
    <path d="M7.19,6.17l.96-.46.6-.29c.14-.07.26-.14.39-.15l-.03,2.01.91-.44.44-.21v-1.97c.21-.19.51-.3.79-.44l1.16-.56c.14-.07.25-.14.41-.16l-.02,1.33v5.13s-3.22,1.51-3.22,1.51l-2.02.97-.82.4v-.93s0-5.54,0-5.54l.44-.21Z"/>
    <path d="M7.22,5.56c-.24.11-.43.22-.65.39L1.72,3.65l-.98-.45c-.13-.06-.28-.14-.33-.2l.81-.37.5-.24c.5-.24.56-.31,1.09-.5l.78.37,1.84.88,1.89.89,1.54.76-.81.37-.85.4Z"/>
    <path d="M10.28,4.17l-1.14-.55-1.85-.88-1.87-.86c-.33-.15-.65-.33-.99-.46-.13-.05-.22-.07-.33-.16l.67-.3.82-.39c.3-.14.59-.31.93-.41l.77.37,3.69,1.75.96.46.61.31-.37.16-1.42.66c-.16.08-.32.18-.49.3Z"/>
</svg>