<?xml version="1.0" encoding="UTF-8"?>
<svg xmlns="http://www.w3.org/2000/svg" viewBox="0 0 20 20" fill="#CED0D6">
    <path d="M17,19.73l-2.11.07c-.43.01-.97-.3-1.16-.85l-1.52-4.47c-.24-.7-.46-1.42-.66-2.12.53-.72.42-2.28.39-3.29-.03-.97-.64-1.64-1.43-1.69-.23-.02-.47-.06-.71-.11L7.43.25l1.99-.05c.66-.02,1.05.43,1.29,1.11l.71,2.05.47,1.43.79,2.37.78,2.27.57,1.65,1.65,4.94.76,2.2.55,1.51Z"/>
    <path d="M10.54,11.35H.57c-.19,0-.37-.39-.37-.57v-1.66c0-.25.2-.48.45-.48h9.78c.25,0,.47.2.46.5v1.64c-.02.21-.15.45-.35.57Z"/>
    <path d="M19.42,7.46c-.02.24-.04.67-.33.72-.34.06-.74.07-1.09-.03-.17-.05-.23-.58-.26-.78l-.26-2.19c-.13-1.05-.11-2.07-.04-3.13.02-.3.25-.5.49-.5h1.39c.72,0,.44,2.39.37,3.1l-.27,2.82Z"/>
    <path d="M15.35,8.21c-.3,0-.63,0-.92-.02-.1-.15-.2-.53-.22-.74-.22-1.87-.53-3.79-.27-5.59.03-.21.35-.36.53-.35l1.52.06c.58.8-.05,4.65-.2,5.9-.04.28-.04.73-.44.74Z"/>
</svg>