<?xml version="1.0" encoding="UTF-8"?>
<svg xmlns="http://www.w3.org/2000/svg" viewBox="0 0 13 13" fill="#CED0D6">
    <path d="M10.95,12.68l-1.34.04c-.27,0-.62-.19-.74-.54l-.97-2.84c-.15-.44-.29-.9-.42-1.35.34-.46.27-1.45.25-2.09-.02-.62-.4-1.04-.91-1.07-.14-.01-.3-.04-.45-.07L4.87.31l1.26-.03c.42,0,.67.27.82.71l.45,1.3.3.91.5,1.5.5,1.44.36,1.05,1.05,3.14.48,1.4.35.96Z"/>
    <path d="M6.84,7.36H.51c-.12,0-.23-.25-.23-.36v-1.06c0-.16.13-.3.29-.3h6.21c.16,0,.3.13.29.32v1.04c-.01.13-.1.28-.22.36Z"/>
    <path d="M12.48,4.89c-.01.16-.03.42-.21.46-.21.04-.47.04-.69-.02-.11-.03-.15-.37-.16-.5l-.17-1.39c-.08-.67-.07-1.31-.02-1.99.01-.19.16-.32.31-.32h.88c.46,0,.28,1.52.24,1.97l-.17,1.79Z"/>
    <path d="M9.9,5.37c-.19,0-.4,0-.58-.01-.07-.09-.12-.34-.14-.47-.14-1.19-.34-2.4-.17-3.55.02-.13.22-.23.33-.22l.97.04c.37.51-.03,2.95-.13,3.74-.02.18-.03.47-.28.47Z"/>
</svg>