<svg xmlns="http://www.w3.org/2000/svg" width="20" height="20" viewBox="0 0 20 20" fill="none" stroke="#6C707E" stroke-width="0.833333333333" stroke-linecap="round" stroke-linejoin="round">
  <title>정렬</title>
  <path d="M5.404375 16.06375 c-1.27125 0 -1.828125 -0.6075 -1.828125 -1.65375 v-2.59875 c0 -1.11375 -0.815625 -1.828125 -1.434375 -1.828125 c0.61875 0 1.434375 -0.714375 1.434375 -1.828125 v-2.59875 c0 -1.04625 0.556875 -1.62 1.828125 -1.558125" />
  <path d="M14.4775 16.06375 c1.26 0 1.94625 -0.6075 1.94625 -1.65375 v-2.59875 c0 -1.11375 0.815625 -1.828125 1.434375 -1.828125 c-0.61875 0 -1.434375 -0.714375 -1.434375 -1.828125 v-2.59875 c0 -1.04625 -0.410625 -1.62 -1.828125 -1.558125" />
  <line x1="7.373125" x2="12.5875" y1="6.844375" y2="6.844375" />
  <line x1="8.183125" x2="11.62" y1="10.10125" y2="10.10125" />
  <line x1="7.35625" x2="12.55375" y1="13.31875" y2="13.31875" />
</svg>
