<?xml version="1.0" encoding="UTF-8"?>
<svg id="_레이어_1" data-name="레이어 1" xmlns="http://www.w3.org/2000/svg" viewBox="0 0 20 20" fill="#6C707E">
    <path d="M3.27,18.46c-.33,0-.61-.11-.85-.34-.24-.23-.42-.56-.55-1-.12-.44-.17-.96-.13-1.58l.17-3.11c.03-.64,0-1.09-.13-1.37-.12-.28-.37-.41-.75-.41H0v-1.28h1.04c.37,0,.62-.14.74-.42.12-.28.17-.74.13-1.38l-.17-3.11c-.04-.62,0-1.15.13-1.58s.3-.76.55-.99c.24-.23.52-.34.85-.34h.42v1.28h-.42c-.27,0-.48.14-.64.41-.16.28-.23.68-.2,1.22l.17,3.11c.03.49,0,.92-.1,1.29-.09.37-.24.65-.45.84-.2.19-.47.29-.79.29v-.07c.32,0,.58.11.79.32.21.22.36.51.45.89s.13.81.1,1.31l-.17,3.11c-.03.54.04.95.2,1.22.16.28.37.41.64.41h.42v1.28h-.42Z"/>
    <path d="M16.65,1.54c.33,0,.61.11.85.34.24.23.42.56.55,1,.12.44.17.96.13,1.58l-.17,3.11c-.03.64,0,1.09.13,1.37.12.28.37.41.75.41h1.04v1.28h-1.04c-.37,0-.62.14-.74.42-.12.28-.17.74-.13,1.38l.17,3.11c.04.62,0,1.15-.13,1.58s-.3.76-.55.99c-.24.23-.52.34-.85.34h-.42v-1.28h.42c.27,0,.48-.14.64-.41.16-.28.23-.68.2-1.22l-.17-3.11c-.03-.49,0-.92.1-1.29.09-.37.24-.65.45-.84.2-.19.47-.29.79-.29v.07c-.32,0-.58-.11-.79-.32-.21-.22-.36-.51-.45-.89s-.13-.81-.1-1.31l.17-3.11c.03-.54-.04-.95-.2-1.22-.16-.28-.37-.41-.64-.41h-.42v-1.28h.42Z"/>
    <path d="M6.32,16V4.32h3.47c.79,0,1.47.15,2.06.45.58.3,1.03.72,1.35,1.26.32.54.48,1.19.48,1.94v4.37c0,.74-.16,1.38-.48,1.93s-.77.98-1.35,1.28c-.58.3-1.27.46-2.06.46h-3.47ZM8.32,14.21h1.47c.58,0,1.03-.17,1.38-.51.34-.34.51-.79.51-1.36v-4.37c0-.56-.17-1.02-.51-1.35-.34-.34-.8-.5-1.38-.5h-1.47v8.1Z"/>
</svg>