<?xml version="1.0" encoding="UTF-8"?>
<svg id="_레이어_1" data-name="레이어 1" xmlns="http://www.w3.org/2000/svg" viewBox="0 0 13 13" fill="#6C707E">
    <path d="M2.98,12.12c-.3,0-.56-.08-.78-.23-.22-.15-.39-.37-.5-.66s-.15-.64-.12-1.05l.16-2.07c.03-.42,0-.73-.12-.91s-.34-.28-.68-.28H0v-.85h.95c.34,0,.57-.09.68-.28s.15-.49.12-.92l-.16-2.07c-.03-.41,0-.77.12-1.05.11-.29.28-.51.5-.66.22-.15.48-.23.78-.23h.38v.85h-.38c-.24,0-.44.09-.59.28-.15.18-.21.45-.18.81l.16,2.07c.03.33,0,.61-.09.86s-.22.43-.41.56c-.19.13-.43.19-.73.19v-.05c.29,0,.53.07.72.22s.33.34.41.59.11.54.09.87l-.16,2.07c-.03.36.03.63.18.81.15.18.34.28.59.28h.38v.85h-.38Z"/>
    <path d="M10.02.88c.3,0,.56.08.78.23.22.15.39.37.5.66s.15.64.12,1.05l-.16,2.07c-.03.42,0,.73.12.91s.34.28.68.28h.95v.85h-.95c-.34,0-.57.09-.68.28s-.15.49-.12.92l.16,2.07c.03.41,0,.77-.12,1.05-.11.29-.28.51-.5.66-.22.15-.48.23-.78.23h-.38v-.85h.38c.24,0,.44-.09.59-.28.15-.18.21-.45.18-.81l-.16-2.07c-.03-.33,0-.61.09-.86s.22-.43.41-.56c.19-.13.43-.19.73-.19v.05c-.29,0-.53-.07-.72-.22s-.33-.34-.41-.59-.11-.54-.09-.87l.16-2.07c.03-.36-.03-.63-.18-.81-.15-.18-.34-.28-.59-.28h-.38v-.85h.38Z"/>
    <path d="M4.31,10.15V2.85h4.38v1.1h-3.15v1.9h2.8v1.06h-2.8v2.14h3.15v1.1h-4.38Z"/>
</svg>