<?xml version="1.0" encoding="UTF-8"?>
<svg id="_레이어_1" data-name="레이어 1" xmlns="http://www.w3.org/2000/svg" viewBox="0 0 20 20" fill="#CED0D6">
    <path d="M3.27,18.46c-.33,0-.61-.11-.85-.34-.24-.23-.42-.56-.55-1-.12-.44-.17-.96-.13-1.58l.17-3.11c.03-.64,0-1.09-.13-1.37-.12-.28-.37-.41-.75-.41H0v-1.28h1.04c.37,0,.62-.14.74-.42.12-.28.17-.74.13-1.38l-.17-3.11c-.04-.62,0-1.15.13-1.58s.3-.76.55-.99c.24-.23.52-.34.85-.34h.42v1.28h-.42c-.27,0-.48.14-.64.41-.16.28-.23.68-.2,1.22l.17,3.11c.03.49,0,.92-.1,1.29-.09.37-.24.65-.45.84-.2.19-.47.29-.79.29v-.07c.32,0,.58.11.79.32.21.22.36.51.45.89s.13.81.1,1.31l-.17,3.11c-.03.54.04.95.2,1.22.16.28.37.41.64.41h.42v1.28h-.42Z"/>
    <path d="M16.65,1.54c.33,0,.61.11.85.34.24.23.42.56.55,1,.12.44.17.96.13,1.58l-.17,3.11c-.03.64,0,1.09.13,1.37.12.28.37.41.75.41h1.04v1.28h-1.04c-.37,0-.62.14-.74.42-.12.28-.17.74-.13,1.38l.17,3.11c.04.62,0,1.15-.13,1.58s-.3.76-.55.99c-.24.23-.52.34-.85.34h-.42v-1.28h.42c.27,0,.48-.14.64-.41.16-.28.23-.68.2-1.22l-.17-3.11c-.03-.49,0-.92.1-1.29.09-.37.24-.65.45-.84.2-.19.47-.29.79-.29v.07c-.32,0-.58-.11-.79-.32-.21-.22-.36-.51-.45-.89s-.13-.81-.1-1.31l.17-3.11c.03-.54-.04-.95-.2-1.22-.16-.28-.37-.41-.64-.41h-.42v-1.28h.42Z"/>
    <path d="M10,16c-.75,0-1.4-.14-1.96-.42-.56-.28-.99-.68-1.3-1.2-.3-.52-.46-1.13-.46-1.83v-5.09c0-.71.15-1.33.46-1.84.3-.51.74-.91,1.3-1.19.56-.28,1.21-.42,1.96-.42s1.41.14,1.96.42c.55.28.98.68,1.29,1.19.31.51.46,1.13.46,1.84h-2.02c0-.55-.15-.98-.45-1.26-.3-.29-.71-.43-1.25-.43s-.97.14-1.26.43-.45.7-.45,1.25v5.1c0,.54.15.97.45,1.26.3.3.72.45,1.26.45s.95-.15,1.25-.45c.3-.3.45-.72.45-1.26v-1.3h-1.98v-1.73h4v3.02c0,.7-.16,1.31-.46,1.83-.31.52-.74.92-1.29,1.2-.55.28-1.2.42-1.96.42Z"/>
</svg>